<?xml version="1.0" encoding="UTF-8" standalone="no"?>
<svg
   xmlns:dc="http://purl.org/dc/elements/1.1/"
   xmlns:cc="http://creativecommons.org/ns#"
   xmlns:rdf="http://www.w3.org/1999/02/22-rdf-syntax-ns#"
   xmlns:svg="http://www.w3.org/2000/svg"
   xmlns="http://www.w3.org/2000/svg"
   xmlns:sodipodi="http://sodipodi.sourceforge.net/DTD/sodipodi-0.dtd"
   xmlns:inkscape="http://www.inkscape.org/namespaces/inkscape"
   version="1.1"
   viewBox="0 0 804.90552 124.59054"
   stroke-miterlimit="10"
   id="svg1787"
   sodipodi:docname="Kodierung-Padding.svg"
   width="804.90552"
   height="124.59054"
   style="fill:none;stroke:none;stroke-linecap:square;stroke-miterlimit:10"
   inkscape:version="0.92.4 (f8dce91, 2019-08-02)">
  <title
     id="title1998">Kodierung-Padding</title>
  <metadata
     id="metadata1793">
    <rdf:RDF>
      <cc:Work
         rdf:about="">
        <dc:format>image/svg+xml</dc:format>
        <dc:type
           rdf:resource="http://purl.org/dc/dcmitype/StillImage" />
        <dc:title>Kodierung-Padding</dc:title>
        <cc:license
           rdf:resource="http://creativecommons.org/licenses/by-nd/4.0/" />
        <dc:creator>
          <cc:Agent>
            <dc:title>Frank W. Rahn</dc:title>
          </cc:Agent>
        </dc:creator>
      </cc:Work>
      <cc:License
         rdf:about="http://creativecommons.org/licenses/by-nd/4.0/">
        <cc:permits
           rdf:resource="http://creativecommons.org/ns#Reproduction" />
        <cc:permits
           rdf:resource="http://creativecommons.org/ns#Distribution" />
        <cc:requires
           rdf:resource="http://creativecommons.org/ns#Notice" />
        <cc:requires
           rdf:resource="http://creativecommons.org/ns#Attribution" />
      </cc:License>
    </rdf:RDF>
  </metadata>
  <defs
     id="defs1791" />
  <sodipodi:namedview
     pagecolor="#ffffff"
     bordercolor="#666666"
     borderopacity="1"
     objecttolerance="10"
     gridtolerance="10"
     guidetolerance="10"
     inkscape:pageopacity="0"
     inkscape:pageshadow="2"
     inkscape:window-width="1873"
     inkscape:window-height="1172"
     id="namedview1789"
     showgrid="false"
     inkscape:zoom="1.3979167"
     inkscape:cx="475.55176"
     inkscape:cy="184.15797"
     inkscape:window-x="1967"
     inkscape:window-y="0"
     inkscape:window-maximized="1"
     inkscape:current-layer="svg1787" />
  <clipPath
     id="g5f39b15168_0_13.0">
    <path
       d="M 0,0 H 960 V 540 H 0 Z"
       id="path1563"
       inkscape:connector-curvature="0"
       style="clip-rule:nonzero" />
  </clipPath>
  <g
     id="g1996"
     transform="translate(-68.25853,-361.79398)">
    <path
       d="m 68.75853,362.29398 h 267.9685 v 41.19684 H 68.75853 Z"
       id="path1603"
       inkscape:connector-curvature="0"
       style="fill:#d9d9d9;fill-rule:nonzero;shape-rendering:crispEdges" />
    <path
       d="m 336.72702,362.29398 h 267.96854 v 41.19684 H 336.72702 Z"
       id="path1605"
       inkscape:connector-curvature="0"
       style="fill:#d9d9d9;fill-rule:nonzero;shape-rendering:crispEdges" />
    <path
       d="m 604.69556,362.29398 h 267.9685 v 41.19684 h -267.9685 z"
       id="path1607"
       inkscape:connector-curvature="0"
       style="fill:#ea9999;fill-rule:nonzero;shape-rendering:crispEdges" />
    <path
       d="m 68.75853,403.4908 h 33.49606 v 41.19684 H 68.75853 Z"
       id="path1609"
       inkscape:connector-curvature="0"
       style="fill:#d9d9d9;fill-rule:nonzero;shape-rendering:crispEdges" />
    <path
       d="m 102.25459,403.4908 h 33.49606 v 41.19684 h -33.49606 z"
       id="path1611"
       inkscape:connector-curvature="0"
       style="fill:#d9d9d9;fill-rule:nonzero;shape-rendering:crispEdges" />
    <path
       d="m 135.75066,403.4908 h 33.49606 v 41.19684 h -33.49606 z"
       id="path1613"
       inkscape:connector-curvature="0"
       style="fill:#d9d9d9;fill-rule:nonzero;shape-rendering:crispEdges" />
    <path
       d="m 169.24672,403.4908 h 33.49606 v 41.19684 h -33.49606 z"
       id="path1615"
       inkscape:connector-curvature="0"
       style="fill:#d9d9d9;fill-rule:nonzero;shape-rendering:crispEdges" />
    <path
       d="m 202.74278,403.4908 h 33.49606 v 41.19684 h -33.49606 z"
       id="path1617"
       inkscape:connector-curvature="0"
       style="fill:#d9d9d9;fill-rule:nonzero;shape-rendering:crispEdges" />
    <path
       d="m 236.23885,403.4908 h 33.49605 v 41.19684 h -33.49605 z"
       id="path1619"
       inkscape:connector-curvature="0"
       style="fill:#d9d9d9;fill-rule:nonzero;shape-rendering:crispEdges" />
    <path
       d="m 269.7349,403.4908 h 33.49606 v 41.19684 H 269.7349 Z"
       id="path1621"
       inkscape:connector-curvature="0"
       style="fill:#d9d9d9;fill-rule:nonzero;shape-rendering:crispEdges" />
    <path
       d="m 303.23096,403.4908 h 33.49606 v 41.19684 h -33.49606 z"
       id="path1623"
       inkscape:connector-curvature="0"
       style="fill:#d9d9d9;fill-rule:nonzero;shape-rendering:crispEdges" />
    <path
       d="m 336.72702,403.4908 h 33.49606 v 41.19684 h -33.49606 z"
       id="path1625"
       inkscape:connector-curvature="0"
       style="fill:#d9d9d9;fill-rule:nonzero;shape-rendering:crispEdges" />
    <path
       d="m 370.22308,403.4908 h 33.49606 v 41.19684 h -33.49606 z"
       id="path1627"
       inkscape:connector-curvature="0"
       style="fill:#d9d9d9;fill-rule:nonzero;shape-rendering:crispEdges" />
    <path
       d="m 403.71915,403.4908 h 33.49606 v 41.19684 h -33.49606 z"
       id="path1629"
       inkscape:connector-curvature="0"
       style="fill:#d9d9d9;fill-rule:nonzero;shape-rendering:crispEdges" />
    <path
       d="m 437.2152,403.4908 h 33.49606 v 41.19684 H 437.2152 Z"
       id="path1631"
       inkscape:connector-curvature="0"
       style="fill:#d9d9d9;fill-rule:nonzero;shape-rendering:crispEdges" />
    <path
       d="m 470.71127,403.4908 h 33.49606 v 41.19684 h -33.49606 z"
       id="path1633"
       inkscape:connector-curvature="0"
       style="fill:#d9d9d9;fill-rule:nonzero;shape-rendering:crispEdges" />
    <path
       d="m 504.20734,403.4908 h 33.49609 v 41.19684 h -33.49609 z"
       id="path1635"
       inkscape:connector-curvature="0"
       style="fill:#d9d9d9;fill-rule:nonzero;shape-rendering:crispEdges" />
    <path
       d="m 537.7034,403.4908 h 33.49603 v 41.19684 H 537.7034 Z"
       id="path1637"
       inkscape:connector-curvature="0"
       style="fill:#d9d9d9;fill-rule:nonzero;shape-rendering:crispEdges" />
    <path
       d="m 571.19946,403.4908 h 33.49609 v 41.19684 h -33.49609 z"
       id="path1639"
       inkscape:connector-curvature="0"
       style="fill:#d9d9d9;fill-rule:nonzero;shape-rendering:crispEdges" />
    <path
       d="m 604.69556,403.4908 h 33.49603 v 41.19684 h -33.49603 z"
       id="path1641"
       inkscape:connector-curvature="0"
       style="fill:#ea9999;fill-rule:nonzero;shape-rendering:crispEdges" />
    <path
       d="m 638.1916,403.4908 h 33.49609 v 41.19684 H 638.1916 Z"
       id="path1643"
       inkscape:connector-curvature="0"
       style="fill:#ea9999;fill-rule:nonzero;shape-rendering:crispEdges" />
    <path
       d="m 671.6877,403.4908 h 33.49603 v 41.19684 H 671.6877 Z"
       id="path1645"
       inkscape:connector-curvature="0"
       style="fill:#ea9999;fill-rule:nonzero;shape-rendering:crispEdges" />
    <path
       d="m 705.1837,403.4908 h 33.49609 v 41.19684 H 705.1837 Z"
       id="path1647"
       inkscape:connector-curvature="0"
       style="fill:#ea9999;fill-rule:nonzero;shape-rendering:crispEdges" />
    <path
       d="m 738.6798,403.4908 h 33.49603 v 41.19684 H 738.6798 Z"
       id="path1649"
       inkscape:connector-curvature="0"
       style="fill:#ea9999;fill-rule:nonzero;shape-rendering:crispEdges" />
    <path
       d="m 772.17584,403.4908 h 33.49609 v 41.19684 h -33.49609 z"
       id="path1651"
       inkscape:connector-curvature="0"
       style="fill:#ea9999;fill-rule:nonzero;shape-rendering:crispEdges" />
    <path
       d="m 805.67194,403.4908 h 33.49603 v 41.19684 h -33.49603 z"
       id="path1653"
       inkscape:connector-curvature="0"
       style="fill:#ea9999;fill-rule:nonzero;shape-rendering:crispEdges" />
    <path
       d="m 839.16797,403.4908 h 33.49609 v 41.19684 h -33.49609 z"
       id="path1655"
       inkscape:connector-curvature="0"
       style="fill:#ea9999;fill-rule:nonzero;shape-rendering:crispEdges" />
    <path
       d="m 68.75853,444.68765 h 200.97636 v 41.19687 H 68.75853 Z"
       id="path1657"
       inkscape:connector-curvature="0"
       style="fill:#b6d7a8;fill-rule:nonzero;shape-rendering:crispEdges" />
    <path
       d="m 269.7349,444.68765 h 200.97638 v 41.19687 H 269.7349 Z"
       id="path1659"
       inkscape:connector-curvature="0"
       style="fill:#b6d7a8;fill-rule:nonzero;shape-rendering:crispEdges" />
    <path
       d="m 470.71127,444.68765 h 200.97641 v 41.19687 H 470.71127 Z"
       id="path1661"
       inkscape:connector-curvature="0"
       style="fill:#b6d7a8;fill-rule:nonzero;shape-rendering:crispEdges" />
    <path
       d="m 671.6877,444.68765 h 200.97638 v 41.19687 H 671.6877 Z"
       id="path1663"
       inkscape:connector-curvature="0"
       style="fill:#b6d7a8;fill-rule:nonzero;shape-rendering:crispEdges" />
    <path
       d="M 68.75853,361.7953 V 486.38322"
       id="path1665"
       inkscape:connector-curvature="0"
       style="fill-rule:nonzero;stroke:#9e9e9e;stroke-width:1;stroke-linecap:butt" />
    <path
       d="m 102.25459,402.99213 v 42.19421"
       id="path1667"
       inkscape:connector-curvature="0"
       style="fill-rule:nonzero;stroke:#9e9e9e;stroke-width:1;stroke-linecap:butt" />
    <path
       d="m 135.75066,402.99213 v 42.19421"
       id="path1669"
       inkscape:connector-curvature="0"
       style="fill-rule:nonzero;stroke:#9e9e9e;stroke-width:1;stroke-linecap:butt" />
    <path
       d="m 169.24672,402.99213 v 42.19421"
       id="path1671"
       inkscape:connector-curvature="0"
       style="fill-rule:nonzero;stroke:#9e9e9e;stroke-width:1;stroke-linecap:butt" />
    <path
       d="m 202.74278,402.99213 v 42.19421"
       id="path1673"
       inkscape:connector-curvature="0"
       style="fill-rule:nonzero;stroke:#9e9e9e;stroke-width:1;stroke-linecap:butt" />
    <path
       d="m 236.23885,402.99213 v 42.19421"
       id="path1675"
       inkscape:connector-curvature="0"
       style="fill-rule:nonzero;stroke:#9e9e9e;stroke-width:1;stroke-linecap:butt" />
    <path
       d="m 269.7349,402.99213 v 83.39108"
       id="path1677"
       inkscape:connector-curvature="0"
       style="fill-rule:nonzero;stroke:#9e9e9e;stroke-width:1;stroke-linecap:butt" />
    <path
       d="m 303.23096,402.99213 v 42.19421"
       id="path1679"
       inkscape:connector-curvature="0"
       style="fill-rule:nonzero;stroke:#9e9e9e;stroke-width:1;stroke-linecap:butt" />
    <path
       d="m 336.72702,361.7953 v 83.39105"
       id="path1681"
       inkscape:connector-curvature="0"
       style="fill-rule:nonzero;stroke:#9e9e9e;stroke-width:1;stroke-linecap:butt" />
    <path
       d="m 370.22308,402.99213 v 42.19421"
       id="path1683"
       inkscape:connector-curvature="0"
       style="fill-rule:nonzero;stroke:#9e9e9e;stroke-width:1;stroke-linecap:butt" />
    <path
       d="m 403.71915,402.99213 v 42.19421"
       id="path1685"
       inkscape:connector-curvature="0"
       style="fill-rule:nonzero;stroke:#9e9e9e;stroke-width:1;stroke-linecap:butt" />
    <path
       d="m 437.2152,402.99213 v 42.19421"
       id="path1687"
       inkscape:connector-curvature="0"
       style="fill-rule:nonzero;stroke:#9e9e9e;stroke-width:1;stroke-linecap:butt" />
    <path
       d="m 470.71127,402.99213 v 83.39108"
       id="path1689"
       inkscape:connector-curvature="0"
       style="fill-rule:nonzero;stroke:#9e9e9e;stroke-width:1;stroke-linecap:butt" />
    <path
       d="m 504.20734,402.99213 v 42.19421"
       id="path1691"
       inkscape:connector-curvature="0"
       style="fill-rule:nonzero;stroke:#9e9e9e;stroke-width:1;stroke-linecap:butt" />
    <path
       d="m 537.7034,402.99213 v 42.19421"
       id="path1693"
       inkscape:connector-curvature="0"
       style="fill-rule:nonzero;stroke:#9e9e9e;stroke-width:1;stroke-linecap:butt" />
    <path
       d="m 571.19946,402.99213 v 42.19421"
       id="path1695"
       inkscape:connector-curvature="0"
       style="fill-rule:nonzero;stroke:#9e9e9e;stroke-width:1;stroke-linecap:butt" />
    <path
       d="m 604.69556,361.7953 v 83.39105"
       id="path1697"
       inkscape:connector-curvature="0"
       style="fill-rule:nonzero;stroke:#9e9e9e;stroke-width:1;stroke-linecap:butt" />
    <path
       d="m 638.1916,402.99213 v 42.19421"
       id="path1699"
       inkscape:connector-curvature="0"
       style="fill-rule:nonzero;stroke:#9e9e9e;stroke-width:1;stroke-linecap:butt" />
    <path
       d="m 671.6877,402.99213 v 83.39108"
       id="path1701"
       inkscape:connector-curvature="0"
       style="fill-rule:nonzero;stroke:#9e9e9e;stroke-width:1;stroke-linecap:butt" />
    <path
       d="m 705.1837,402.99213 v 42.19421"
       id="path1703"
       inkscape:connector-curvature="0"
       style="fill-rule:nonzero;stroke:#9e9e9e;stroke-width:1;stroke-linecap:butt" />
    <path
       d="m 738.6798,402.99213 v 42.19421"
       id="path1705"
       inkscape:connector-curvature="0"
       style="fill-rule:nonzero;stroke:#9e9e9e;stroke-width:1;stroke-linecap:butt" />
    <path
       d="m 772.17584,402.99213 v 42.19421"
       id="path1707"
       inkscape:connector-curvature="0"
       style="fill-rule:nonzero;stroke:#9e9e9e;stroke-width:1;stroke-linecap:butt" />
    <path
       d="m 805.67194,402.99213 v 42.19421"
       id="path1709"
       inkscape:connector-curvature="0"
       style="fill-rule:nonzero;stroke:#9e9e9e;stroke-width:1;stroke-linecap:butt" />
    <path
       d="m 839.16797,402.99213 v 42.19421"
       id="path1711"
       inkscape:connector-curvature="0"
       style="fill-rule:nonzero;stroke:#9e9e9e;stroke-width:1;stroke-linecap:butt" />
    <path
       d="M 872.66406,361.7953 V 486.38322"
       id="path1713"
       inkscape:connector-curvature="0"
       style="fill-rule:nonzero;stroke:#9e9e9e;stroke-width:1;stroke-linecap:butt" />
    <path
       d="m 68.25984,362.29398 h 804.9029"
       id="path1715"
       inkscape:connector-curvature="0"
       style="fill-rule:nonzero;stroke:#9e9e9e;stroke-width:1;stroke-linecap:butt" />
    <path
       d="m 68.25984,403.4908 h 804.9029"
       id="path1717"
       inkscape:connector-curvature="0"
       style="fill-rule:nonzero;stroke:#9e9e9e;stroke-width:1;stroke-linecap:butt" />
    <path
       d="m 68.25984,444.68765 h 804.9029"
       id="path1719"
       inkscape:connector-curvature="0"
       style="fill-rule:nonzero;stroke:#9e9e9e;stroke-width:1;stroke-linecap:butt" />
    <path
       d="m 68.25984,485.88452 h 804.9029"
       id="path1721"
       inkscape:connector-curvature="0"
       style="fill-rule:nonzero;stroke:#9e9e9e;stroke-width:1;stroke-linecap:butt" />
    <path
       d="m 168.79408,382.6202 q 0,-2.35938 0.48437,-3.79688 0.48438,-1.45312 1.4375,-2.23437 0.96875,-0.78125 2.42188,-0.78125 1.07812,0 1.89062,0.4375 0.8125,0.42187 1.32813,1.25 0.53125,0.8125 0.82812,1.98437 0.3125,1.15625 0.3125,3.14063 0,2.35937 -0.48437,3.8125 -0.48438,1.4375 -1.45313,2.23437 -0.95312,0.78125 -2.42187,0.78125 -1.92188,0 -3.03125,-1.39062 -1.3125,-1.67188 -1.3125,-5.4375 z m 1.67187,0 q 0,3.29687 0.76563,4.39062 0.78125,1.07813 1.90625,1.07813 1.14062,0 1.90625,-1.09375 0.76562,-1.09375 0.76562,-4.375 0,-3.29688 -0.76562,-4.375 -0.76563,-1.07813 -1.92188,-1.07813 -1.125,0 -1.79687,0.95313 -0.85938,1.21875 -0.85938,4.5 z m 8.06322,6.59375 3.53125,-5.03125 -3.26562,-4.64063 h 2.04687 l 1.48438,2.26563 q 0.42187,0.64062 0.67187,1.07812 0.40625,-0.59375 0.73438,-1.0625 l 1.64062,-2.28125 h 1.95313 l -3.34375,4.54688 3.59375,5.125 h -2.01563 l -1.98437,-3 -0.51563,-0.8125 -2.54687,3.8125 z m 15.21875,0 v -3.20313 h -5.79687 v -1.5 l 6.09375,-8.65625 h 1.34375 v 8.65625 h 1.79686 v 1.5 h -1.79686 v 3.20313 z m 0,-4.70313 v -6.01562 l -4.1875,6.01562 z m 5.87572,4.70313 v -13.35938 h 9.01562 v 1.57813 h -7.25 v 4.14062 h 6.26563 v 1.57813 h -6.26563 v 6.0625 z m 19.40741,3.92187 q -1.35938,-1.70312 -2.29688,-4 -0.9375,-2.29687 -0.9375,-4.76562 0,-2.15625 0.70313,-4.14063 0.82812,-2.3125 2.53125,-4.59375 h 1.17187 q -1.09375,1.89063 -1.45312,2.70313 -0.54688,1.25 -0.875,2.625 -0.39063,1.70312 -0.39063,3.42187 0,4.375 2.71875,8.75 z m 1.57205,-0.21875 v -1.1875 h 10.85938 v 1.1875 z m 12.96945,0.21875 h -1.1875 q 2.73438,-4.375 2.73438,-8.75 0,-1.71875 -0.39063,-3.39062 -0.3125,-1.375 -0.875,-2.625 -0.35937,-0.82813 -1.46875,-2.73438 h 1.1875 q 1.70313,2.28125 2.53125,4.59375 0.6875,1.98438 0.6875,4.14063 0,2.46875 -0.9375,4.76562 -0.9375,2.29688 -2.28125,4 z"
       id="path1723"
       inkscape:connector-curvature="0"
       style="fill:#000000;fill-rule:nonzero" />
    <path
       d="m 448.68234,382.6202 q 0,-2.35938 0.48437,-3.79688 0.48438,-1.45312 1.4375,-2.23437 0.96875,-0.78125 2.42188,-0.78125 1.07812,0 1.89062,0.4375 0.8125,0.42187 1.32813,1.25 0.53125,0.8125 0.82812,1.98437 0.3125,1.15625 0.3125,3.14063 0,2.35937 -0.48437,3.8125 -0.48438,1.4375 -1.45313,2.23437 -0.95312,0.78125 -2.42187,0.78125 -1.92188,0 -3.03125,-1.39062 -1.3125,-1.67188 -1.3125,-5.4375 z m 1.67187,0 q 0,3.29687 0.76563,4.39062 0.78125,1.07813 1.90625,1.07813 1.14062,0 1.90625,-1.09375 0.76562,-1.09375 0.76562,-4.375 0,-3.29688 -0.76562,-4.375 -0.76563,-1.07813 -1.92188,-1.07813 -1.125,0 -1.79687,0.95313 -0.85938,1.21875 -0.85938,4.5 z m 8.06324,6.59375 3.53125,-5.03125 -3.26563,-4.64063 h 2.04688 l 1.48437,2.26563 q 0.42188,0.64062 0.67188,1.07812 0.40625,-0.59375 0.73437,-1.0625 l 1.64063,-2.28125 h 1.95312 l -3.34375,4.54688 3.59375,5.125 h -2.01562 l -1.98438,-3 -0.51562,-0.8125 -2.54688,3.8125 z m 9.15625,0 5.125,-13.35938 h 1.90625 l 5.46875,13.35938 h -2.01563 l -1.54687,-4.04688 h -5.59375 l -1.46875,4.04688 z m 3.85937,-5.48438 h 4.53125 l -1.40625,-3.70312 q -0.625,-1.6875 -0.9375,-2.76563 -0.26562,1.28125 -0.71875,2.54688 z m 10.05295,5.48438 v -13.35938 h 4.60938 q 1.54687,0 2.375,0.20313 1.14062,0.25 1.95312,0.95312 1.0625,0.89063 1.57813,2.28125 0.53125,1.39063 0.53125,3.17188 0,1.51562 -0.35938,2.70312 -0.35937,1.17188 -0.92187,1.9375 -0.54688,0.76563 -1.20313,1.21875 -0.65625,0.4375 -1.59375,0.67188 -0.9375,0.21875 -2.14062,0.21875 z m 1.76563,-1.57813 h 2.85937 q 1.3125,0 2.0625,-0.23437 0.75,-0.25 1.20313,-0.70313 0.625,-0.625 0.96875,-1.6875 0.35937,-1.0625 0.35937,-2.57812 0,-2.09375 -0.6875,-3.21875 -0.6875,-1.125 -1.67187,-1.5 -0.70313,-0.28125 -2.28125,-0.28125 h -2.8125 z"
       id="path1725"
       inkscape:connector-curvature="0"
       style="fill:#000000;fill-rule:nonzero" />
    <path
       d="m 719.2334,382.6202 q 0,-2.35938 0.48437,-3.79688 0.48438,-1.45312 1.4375,-2.23437 0.96875,-0.78125 2.42188,-0.78125 1.07812,0 1.89062,0.4375 0.8125,0.42187 1.32813,1.25 0.53125,0.8125 0.82812,1.98437 0.3125,1.15625 0.3125,3.14063 0,2.35937 -0.48437,3.8125 -0.48438,1.4375 -1.45313,2.23437 -0.95312,0.78125 -2.42187,0.78125 -1.92188,0 -3.03125,-1.39062 -1.3125,-1.67188 -1.3125,-5.4375 z m 1.67187,0 q 0,3.29687 0.76563,4.39062 0.78125,1.07813 1.90625,1.07813 1.14062,0 1.90625,-1.09375 0.76562,-1.09375 0.76562,-4.375 0,-3.29688 -0.76562,-4.375 -0.76563,-1.07813 -1.92188,-1.07813 -1.125,0 -1.79687,0.95313 -0.85938,1.21875 -0.85938,4.5 z m 8.06324,6.59375 3.53125,-5.03125 -3.26563,-4.64063 h 2.04688 l 1.48437,2.26563 q 0.42188,0.64062 0.67188,1.07812 0.40625,-0.59375 0.73437,-1.0625 l 1.64063,-2.28125 h 1.95312 l -3.34375,4.54688 3.59375,5.125 h -2.01562 l -1.98438,-3 -0.51562,-0.8125 -2.54688,3.8125 z m 9.96875,-6.59375 q 0,-2.35938 0.48437,-3.79688 0.48438,-1.45312 1.4375,-2.23437 0.96875,-0.78125 2.42188,-0.78125 1.07812,0 1.89062,0.4375 0.8125,0.42187 1.32813,1.25 0.53125,0.8125 0.82812,1.98437 0.3125,1.15625 0.3125,3.14063 0,2.35937 -0.48437,3.8125 -0.48438,1.4375 -1.45313,2.23437 -0.95312,0.78125 -2.42187,0.78125 -1.92188,0 -3.03125,-1.39062 -1.3125,-1.67188 -1.3125,-5.4375 z m 1.67187,0 q 0,3.29687 0.76563,4.39062 0.78125,1.07813 1.90625,1.07813 1.14062,0 1.90625,-1.09375 0.76562,-1.09375 0.76562,-4.375 0,-3.29688 -0.76562,-4.375 -0.76563,-1.07813 -1.92188,-1.07813 -1.125,0 -1.79687,0.95313 -0.85938,1.21875 -0.85938,4.5 z m 8.70386,0 q 0,-2.35938 0.48437,-3.79688 0.48438,-1.45312 1.4375,-2.23437 0.96875,-0.78125 2.42188,-0.78125 1.07812,0 1.89062,0.4375 0.8125,0.42187 1.32813,1.25 0.53125,0.8125 0.82812,1.98437 0.3125,1.15625 0.3125,3.14063 0,2.35937 -0.48437,3.8125 -0.48438,1.4375 -1.45313,2.23437 -0.95312,0.78125 -2.42187,0.78125 -1.92188,0 -3.03125,-1.39062 -1.3125,-1.67188 -1.3125,-5.4375 z m 1.67187,0 q 0,3.29687 0.76563,4.39062 0.78125,1.07813 1.90625,1.07813 1.14062,0 1.90625,-1.09375 0.76562,-1.09375 0.76562,-4.375 0,-3.29688 -0.76562,-4.375 -0.76563,-1.07813 -1.92188,-1.07813 -1.125,0 -1.79687,0.95313 -0.85938,1.21875 -0.85938,4.5 z"
       id="path1727"
       inkscape:connector-curvature="0"
       style="fill:#000000;fill-rule:nonzero" />
    <path
       d="m 78.53978,423.81705 q 0,-2.35938 0.484375,-3.79688 0.484375,-1.45312 1.4375,-2.23437 0.96875,-0.78125 2.421875,-0.78125 1.078125,0 1.890625,0.4375 0.8125,0.42187 1.328125,1.25 0.53125,0.8125 0.828125,1.98437 0.3125,1.15625 0.3125,3.14063 0,2.35937 -0.484375,3.8125 -0.484375,1.4375 -1.453125,2.23437 -0.953125,0.78125 -2.421875,0.78125 -1.921875,0 -3.03125,-1.39062 -1.3125,-1.67188 -1.3125,-5.4375 z m 1.671875,0 q 0,3.29687 0.765625,4.39062 0.78125,1.07813 1.90625,1.07813 1.140625,0 1.90625,-1.09375 0.765625,-1.09375 0.765625,-4.375 0,-3.29688 -0.765625,-4.375 -0.765625,-1.07813 -1.921875,-1.07813 -1.125,0 -1.796875,0.95313 -0.859375,1.21875 -0.859375,4.5 z"
       id="path1729"
       inkscape:connector-curvature="0"
       style="fill:#000000;fill-rule:nonzero" />
    <path
       d="m 118.20772,430.4108 h -1.64063 v -10.45313 q -0.59375,0.5625 -1.5625,1.14063 -0.95312,0.5625 -1.71875,0.84375 v -1.59375 q 1.375,-0.64063 2.40625,-1.5625 1.03125,-0.92188 1.45313,-1.78125 h 1.0625 z"
       id="path1731"
       inkscape:connector-curvature="0"
       style="fill:#000000;fill-rule:nonzero" />
    <path
       d="m 145.5319,423.81705 q 0,-2.35938 0.48437,-3.79688 0.48438,-1.45312 1.4375,-2.23437 0.96875,-0.78125 2.42188,-0.78125 1.07812,0 1.89062,0.4375 0.8125,0.42187 1.32813,1.25 0.53125,0.8125 0.82812,1.98437 0.3125,1.15625 0.3125,3.14063 0,2.35937 -0.48437,3.8125 -0.48438,1.4375 -1.45313,2.23437 -0.95312,0.78125 -2.42187,0.78125 -1.92188,0 -3.03125,-1.39062 -1.3125,-1.67188 -1.3125,-5.4375 z m 1.67187,0 q 0,3.29687 0.76563,4.39062 0.78125,1.07813 1.90625,1.07813 1.14062,0 1.90625,-1.09375 0.76562,-1.09375 0.76562,-4.375 0,-3.29688 -0.76562,-4.375 -0.76563,-1.07813 -1.92188,-1.07813 -1.125,0 -1.79687,0.95313 -0.85938,1.21875 -0.85938,4.5 z"
       id="path1733"
       inkscape:connector-curvature="0"
       style="fill:#000000;fill-rule:nonzero" />
    <path
       d="m 179.02797,423.81705 q 0,-2.35938 0.48437,-3.79688 0.48438,-1.45312 1.4375,-2.23437 0.96875,-0.78125 2.42188,-0.78125 1.07812,0 1.89062,0.4375 0.8125,0.42187 1.32813,1.25 0.53125,0.8125 0.82812,1.98437 0.3125,1.15625 0.3125,3.14063 0,2.35937 -0.48437,3.8125 -0.48438,1.4375 -1.45313,2.23437 -0.95312,0.78125 -2.42187,0.78125 -1.92188,0 -3.03125,-1.39062 -1.3125,-1.67188 -1.3125,-5.4375 z m 1.67187,0 q 0,3.29687 0.76563,4.39062 0.78125,1.07813 1.90625,1.07813 1.14062,0 1.90625,-1.09375 0.76562,-1.09375 0.76562,-4.375 0,-3.29688 -0.76562,-4.375 -0.76563,-1.07813 -1.92188,-1.07813 -1.125,0 -1.79687,0.95313 -0.85938,1.21875 -0.85938,4.5 z"
       id="path1735"
       inkscape:connector-curvature="0"
       style="fill:#000000;fill-rule:nonzero" />
    <path
       d="m 218.6959,430.4108 h -1.64063 v -10.45313 q -0.59375,0.5625 -1.5625,1.14063 -0.95312,0.5625 -1.71875,0.84375 v -1.59375 q 1.375,-0.64063 2.40625,-1.5625 1.03125,-0.92188 1.45313,-1.78125 h 1.0625 z"
       id="path1737"
       inkscape:connector-curvature="0"
       style="fill:#000000;fill-rule:nonzero" />
    <path
       d="m 252.19197,430.4108 h -1.64063 v -10.45313 q -0.59375,0.5625 -1.5625,1.14063 -0.95312,0.5625 -1.71875,0.84375 v -1.59375 q 1.375,-0.64063 2.40625,-1.5625 1.03125,-0.92188 1.45313,-1.78125 h 1.0625 z"
       id="path1739"
       inkscape:connector-curvature="0"
       style="fill:#000000;fill-rule:nonzero" />
    <path
       d="m 285.68802,430.4108 h -1.64063 v -10.45313 q -0.59375,0.5625 -1.5625,1.14063 -0.95312,0.5625 -1.71875,0.84375 v -1.59375 q 1.375,-0.64063 2.40625,-1.5625 1.03125,-0.92188 1.45313,-1.78125 h 1.0625 z"
       id="path1741"
       inkscape:connector-curvature="0"
       style="fill:#000000;fill-rule:nonzero" />
    <path
       d="m 319.18408,430.4108 h -1.64063 v -10.45313 q -0.59375,0.5625 -1.5625,1.14063 -0.95312,0.5625 -1.71875,0.84375 v -1.59375 q 1.375,-0.64063 2.40625,-1.5625 1.03125,-0.92188 1.45313,-1.78125 h 1.0625 z"
       id="path1743"
       inkscape:connector-curvature="0"
       style="fill:#000000;fill-rule:nonzero" />
    <path
       d="m 352.68015,430.4108 h -1.64062 v -10.45313 q -0.59375,0.5625 -1.5625,1.14063 -0.95313,0.5625 -1.71875,0.84375 v -1.59375 q 1.375,-0.64063 2.40625,-1.5625 1.03125,-0.92188 1.45312,-1.78125 h 1.0625 z"
       id="path1745"
       inkscape:connector-curvature="0"
       style="fill:#000000;fill-rule:nonzero" />
    <path
       d="m 380.00433,423.81705 q 0,-2.35938 0.48437,-3.79688 0.48438,-1.45312 1.4375,-2.23437 0.96875,-0.78125 2.42188,-0.78125 1.07812,0 1.89062,0.4375 0.8125,0.42187 1.32813,1.25 0.53125,0.8125 0.82812,1.98437 0.3125,1.15625 0.3125,3.14063 0,2.35937 -0.48437,3.8125 -0.48438,1.4375 -1.45313,2.23437 -0.95312,0.78125 -2.42187,0.78125 -1.92188,0 -3.03125,-1.39062 -1.3125,-1.67188 -1.3125,-5.4375 z m 1.67187,0 q 0,3.29687 0.76563,4.39062 0.78125,1.07813 1.90625,1.07813 1.14062,0 1.90625,-1.09375 0.76562,-1.09375 0.76562,-4.375 0,-3.29688 -0.76562,-4.375 -0.76563,-1.07813 -1.92188,-1.07813 -1.125,0 -1.79687,0.95313 -0.85938,1.21875 -0.85938,4.5 z"
       id="path1747"
       inkscape:connector-curvature="0"
       style="fill:#000000;fill-rule:nonzero" />
    <path
       d="m 419.67227,430.4108 h -1.64062 v -10.45313 q -0.59375,0.5625 -1.5625,1.14063 -0.95313,0.5625 -1.71875,0.84375 v -1.59375 q 1.375,-0.64063 2.40625,-1.5625 1.03125,-0.92188 1.45312,-1.78125 h 1.0625 z"
       id="path1749"
       inkscape:connector-curvature="0"
       style="fill:#000000;fill-rule:nonzero" />
    <path
       d="m 446.99646,423.81705 q 0,-2.35938 0.48438,-3.79688 0.48437,-1.45312 1.4375,-2.23437 0.96875,-0.78125 2.42187,-0.78125 1.07813,0 1.89063,0.4375 0.8125,0.42187 1.32812,1.25 0.53125,0.8125 0.82813,1.98437 0.3125,1.15625 0.3125,3.14063 0,2.35937 -0.48438,3.8125 -0.48437,1.4375 -1.45312,2.23437 -0.95313,0.78125 -2.42188,0.78125 -1.92187,0 -3.03125,-1.39062 -1.3125,-1.67188 -1.3125,-5.4375 z m 1.67188,0 q 0,3.29687 0.76562,4.39062 0.78125,1.07813 1.90625,1.07813 1.14063,0 1.90625,-1.09375 0.76563,-1.09375 0.76563,-4.375 0,-3.29688 -0.76563,-4.375 -0.76562,-1.07813 -1.92187,-1.07813 -1.125,0 -1.79688,0.95313 -0.85937,1.21875 -0.85937,4.5 z"
       id="path1751"
       inkscape:connector-curvature="0"
       style="fill:#000000;fill-rule:nonzero" />
    <path
       d="m 486.6644,430.4108 h -1.64063 v -10.45313 q -0.59375,0.5625 -1.5625,1.14063 -0.95312,0.5625 -1.71875,0.84375 v -1.59375 q 1.375,-0.64063 2.40625,-1.5625 1.03125,-0.92188 1.45313,-1.78125 h 1.0625 z"
       id="path1753"
       inkscape:connector-curvature="0"
       style="fill:#000000;fill-rule:nonzero" />
    <path
       d="m 520.16046,430.4108 h -1.64063 v -10.45313 q -0.59375,0.5625 -1.5625,1.14063 -0.95312,0.5625 -1.71875,0.84375 v -1.59375 q 1.375,-0.64063 2.40625,-1.5625 1.03125,-0.92188 1.45313,-1.78125 h 1.0625 z"
       id="path1755"
       inkscape:connector-curvature="0"
       style="fill:#000000;fill-rule:nonzero" />
    <path
       d="m 547.4847,423.81705 q 0,-2.35938 0.48437,-3.79688 0.48438,-1.45312 1.4375,-2.23437 0.96875,-0.78125 2.42188,-0.78125 1.07812,0 1.89062,0.4375 0.8125,0.42187 1.32813,1.25 0.53125,0.8125 0.82812,1.98437 0.3125,1.15625 0.3125,3.14063 0,2.35937 -0.48437,3.8125 -0.48438,1.4375 -1.45313,2.23437 -0.95312,0.78125 -2.42187,0.78125 -1.92188,0 -3.03125,-1.39062 -1.3125,-1.67188 -1.3125,-5.4375 z m 1.67187,0 q 0,3.29687 0.76563,4.39062 0.78125,1.07813 1.90625,1.07813 1.14062,0 1.90625,-1.09375 0.76562,-1.09375 0.76562,-4.375 0,-3.29688 -0.76562,-4.375 -0.76563,-1.07813 -1.92188,-1.07813 -1.125,0 -1.79687,0.95313 -0.85938,1.21875 -0.85938,4.5 z"
       id="path1757"
       inkscape:connector-curvature="0"
       style="fill:#000000;fill-rule:nonzero" />
    <path
       d="m 587.1526,430.4108 h -1.64063 v -10.45313 q -0.59375,0.5625 -1.5625,1.14063 -0.95312,0.5625 -1.71875,0.84375 v -1.59375 q 1.375,-0.64063 2.40625,-1.5625 1.03125,-0.92188 1.45313,-1.78125 h 1.0625 z"
       id="path1759"
       inkscape:connector-curvature="0"
       style="fill:#000000;fill-rule:nonzero" />
    <path
       d="m 614.4768,423.81705 q 0,-2.35938 0.48438,-3.79688 0.48437,-1.45312 1.4375,-2.23437 0.96875,-0.78125 2.42187,-0.78125 1.07813,0 1.89063,0.4375 0.8125,0.42187 1.32812,1.25 0.53125,0.8125 0.82813,1.98437 0.3125,1.15625 0.3125,3.14063 0,2.35937 -0.48438,3.8125 -0.48437,1.4375 -1.45312,2.23437 -0.95313,0.78125 -2.42188,0.78125 -1.92187,0 -3.03125,-1.39062 -1.3125,-1.67188 -1.3125,-5.4375 z m 1.67188,0 q 0,3.29687 0.76562,4.39062 0.78125,1.07813 1.90625,1.07813 1.14063,0 1.90625,-1.09375 0.76563,-1.09375 0.76563,-4.375 0,-3.29688 -0.76563,-4.375 -0.76562,-1.07813 -1.92187,-1.07813 -1.125,0 -1.79688,0.95313 -0.85937,1.21875 -0.85937,4.5 z"
       id="path1761"
       inkscape:connector-curvature="0"
       style="fill:#000000;fill-rule:nonzero" />
    <path
       d="m 647.97284,423.81705 q 0,-2.35938 0.48438,-3.79688 0.48437,-1.45312 1.4375,-2.23437 0.96875,-0.78125 2.42187,-0.78125 1.07813,0 1.89063,0.4375 0.8125,0.42187 1.32812,1.25 0.53125,0.8125 0.82813,1.98437 0.3125,1.15625 0.3125,3.14063 0,2.35937 -0.48438,3.8125 -0.48437,1.4375 -1.45312,2.23437 -0.95313,0.78125 -2.42188,0.78125 -1.92187,0 -3.03125,-1.39062 -1.3125,-1.67188 -1.3125,-5.4375 z m 1.67188,0 q 0,3.29687 0.76562,4.39062 0.78125,1.07813 1.90625,1.07813 1.14063,0 1.90625,-1.09375 0.76563,-1.09375 0.76563,-4.375 0,-3.29688 -0.76563,-4.375 -0.76562,-1.07813 -1.92187,-1.07813 -1.125,0 -1.79688,0.95313 -0.85937,1.21875 -0.85937,4.5 z"
       id="path1763"
       inkscape:connector-curvature="0"
       style="fill:#000000;fill-rule:nonzero" />
    <path
       d="m 681.46893,423.81705 q 0,-2.35938 0.48437,-3.79688 0.48438,-1.45312 1.4375,-2.23437 0.96875,-0.78125 2.42188,-0.78125 1.07812,0 1.89062,0.4375 0.8125,0.42187 1.32813,1.25 0.53125,0.8125 0.82812,1.98437 0.3125,1.15625 0.3125,3.14063 0,2.35937 -0.48437,3.8125 -0.48438,1.4375 -1.45313,2.23437 -0.95312,0.78125 -2.42187,0.78125 -1.92188,0 -3.03125,-1.39062 -1.3125,-1.67188 -1.3125,-5.4375 z m 1.67187,0 q 0,3.29687 0.76563,4.39062 0.78125,1.07813 1.90625,1.07813 1.14062,0 1.90625,-1.09375 0.76562,-1.09375 0.76562,-4.375 0,-3.29688 -0.76562,-4.375 -0.76563,-1.07813 -1.92188,-1.07813 -1.125,0 -1.79687,0.95313 -0.85938,1.21875 -0.85938,4.5 z"
       id="path1765"
       inkscape:connector-curvature="0"
       style="fill:#000000;fill-rule:nonzero" />
    <path
       d="m 714.96497,423.81705 q 0,-2.35938 0.48437,-3.79688 0.48438,-1.45312 1.4375,-2.23437 0.96875,-0.78125 2.42188,-0.78125 1.07812,0 1.89062,0.4375 0.8125,0.42187 1.32813,1.25 0.53125,0.8125 0.82812,1.98437 0.3125,1.15625 0.3125,3.14063 0,2.35937 -0.48437,3.8125 -0.48438,1.4375 -1.45313,2.23437 -0.95312,0.78125 -2.42187,0.78125 -1.92188,0 -3.03125,-1.39062 -1.3125,-1.67188 -1.3125,-5.4375 z m 1.67187,0 q 0,3.29687 0.76563,4.39062 0.78125,1.07813 1.90625,1.07813 1.14062,0 1.90625,-1.09375 0.76562,-1.09375 0.76562,-4.375 0,-3.29688 -0.76562,-4.375 -0.76563,-1.07813 -1.92188,-1.07813 -1.125,0 -1.79687,0.95313 -0.85938,1.21875 -0.85938,4.5 z"
       id="path1767"
       inkscape:connector-curvature="0"
       style="fill:#000000;fill-rule:nonzero" />
    <path
       d="m 748.46106,423.81705 q 0,-2.35938 0.48437,-3.79688 0.48438,-1.45312 1.4375,-2.23437 0.96875,-0.78125 2.42188,-0.78125 1.07812,0 1.89062,0.4375 0.8125,0.42187 1.32813,1.25 0.53125,0.8125 0.82812,1.98437 0.3125,1.15625 0.3125,3.14063 0,2.35937 -0.48437,3.8125 -0.48438,1.4375 -1.45313,2.23437 -0.95312,0.78125 -2.42187,0.78125 -1.92188,0 -3.03125,-1.39062 -1.3125,-1.67188 -1.3125,-5.4375 z m 1.67187,0 q 0,3.29687 0.76563,4.39062 0.78125,1.07813 1.90625,1.07813 1.14062,0 1.90625,-1.09375 0.76562,-1.09375 0.76562,-4.375 0,-3.29688 -0.76562,-4.375 -0.76563,-1.07813 -1.92188,-1.07813 -1.125,0 -1.79687,0.95313 -0.85938,1.21875 -0.85938,4.5 z"
       id="path1769"
       inkscape:connector-curvature="0"
       style="fill:#000000;fill-rule:nonzero" />
    <path
       d="m 781.9571,423.81705 q 0,-2.35938 0.48437,-3.79688 0.48438,-1.45312 1.4375,-2.23437 0.96875,-0.78125 2.42188,-0.78125 1.07812,0 1.89062,0.4375 0.8125,0.42187 1.32813,1.25 0.53125,0.8125 0.82812,1.98437 0.3125,1.15625 0.3125,3.14063 0,2.35937 -0.48437,3.8125 -0.48438,1.4375 -1.45313,2.23437 -0.95312,0.78125 -2.42187,0.78125 -1.92188,0 -3.03125,-1.39062 -1.3125,-1.67188 -1.3125,-5.4375 z m 1.67187,0 q 0,3.29687 0.76563,4.39062 0.78125,1.07813 1.90625,1.07813 1.14062,0 1.90625,-1.09375 0.76562,-1.09375 0.76562,-4.375 0,-3.29688 -0.76562,-4.375 -0.76563,-1.07813 -1.92188,-1.07813 -1.125,0 -1.79687,0.95313 -0.85938,1.21875 -0.85938,4.5 z"
       id="path1771"
       inkscape:connector-curvature="0"
       style="fill:#000000;fill-rule:nonzero" />
    <path
       d="m 815.4532,423.81705 q 0,-2.35938 0.48438,-3.79688 0.48437,-1.45312 1.4375,-2.23437 0.96875,-0.78125 2.42187,-0.78125 1.07813,0 1.89063,0.4375 0.8125,0.42187 1.32812,1.25 0.53125,0.8125 0.82813,1.98437 0.3125,1.15625 0.3125,3.14063 0,2.35937 -0.48438,3.8125 -0.48437,1.4375 -1.45312,2.23437 -0.95313,0.78125 -2.42188,0.78125 -1.92187,0 -3.03125,-1.39062 -1.3125,-1.67188 -1.3125,-5.4375 z m 1.67188,0 q 0,3.29687 0.76562,4.39062 0.78125,1.07813 1.90625,1.07813 1.14063,0 1.90625,-1.09375 0.76563,-1.09375 0.76563,-4.375 0,-3.29688 -0.76563,-4.375 -0.76562,-1.07813 -1.92187,-1.07813 -1.125,0 -1.79688,0.95313 -0.85937,1.21875 -0.85937,4.5 z"
       id="path1773"
       inkscape:connector-curvature="0"
       style="fill:#000000;fill-rule:nonzero" />
    <path
       d="m 848.9492,423.81705 q 0,-2.35938 0.48438,-3.79688 0.48437,-1.45312 1.4375,-2.23437 0.96875,-0.78125 2.42187,-0.78125 1.07813,0 1.89063,0.4375 0.8125,0.42187 1.32812,1.25 0.53125,0.8125 0.82813,1.98437 0.3125,1.15625 0.3125,3.14063 0,2.35937 -0.48438,3.8125 -0.48437,1.4375 -1.45312,2.23437 -0.95313,0.78125 -2.42188,0.78125 -1.92187,0 -3.03125,-1.39062 -1.3125,-1.67188 -1.3125,-5.4375 z m 1.67188,0 q 0,3.29687 0.76562,4.39062 0.78125,1.07813 1.90625,1.07813 1.14063,0 1.90625,-1.09375 0.76563,-1.09375 0.76563,-4.375 0,-3.29688 -0.76563,-4.375 -0.76562,-1.07813 -1.92187,-1.07813 -1.125,0 -1.79688,0.95313 -0.85937,1.21875 -0.85937,4.5 z"
       id="path1775"
       inkscape:connector-curvature="0"
       style="fill:#000000;fill-rule:nonzero" />
    <path
       d="m 168.39249,471.60767 v -11.78125 h -4.40625 v -1.57813 h 10.57812 v 1.57813 h -4.40625 v 11.78125 z"
       id="path1777"
       inkscape:connector-curvature="0"
       style="fill:#000000;fill-rule:nonzero" />
    <path
       d="m 374.3165,461.52954 -1.625,0.125 q -0.21875,-0.96875 -0.625,-1.40625 -0.65625,-0.70313 -1.64062,-0.70313 -0.78125,0 -1.375,0.4375 -0.76563,0.5625 -1.21875,1.65625 -0.45313,1.07813 -0.46875,3.07813 0.59375,-0.89063 1.45312,-1.32813 0.85938,-0.4375 1.79688,-0.4375 1.64062,0 2.78125,1.20313 1.15625,1.20312 1.15625,3.10937 0,1.26563 -0.54688,2.34375 -0.53125,1.07813 -1.48437,1.65625 -0.9375,0.57813 -2.14063,0.57813 -2.0625,0 -3.35937,-1.5 -1.28125,-1.51563 -1.28125,-4.98438 0,-3.875 1.42187,-5.625 1.25,-1.53125 3.375,-1.53125 1.5625,0 2.5625,0.89063 1.01563,0.875 1.21875,2.4375 z m -6.6875,5.75 q 0,0.84375 0.35938,1.625 0.35937,0.76562 1,1.17187 0.64062,0.40625 1.35937,0.40625 1.03125,0 1.78125,-0.82812 0.75,-0.84375 0.75,-2.28125 0,-1.39063 -0.73437,-2.1875 -0.73438,-0.79688 -1.85938,-0.79688 -1.10937,0 -1.89062,0.79688 -0.76563,0.79687 -0.76563,2.09375 z"
       id="path1779"
       inkscape:connector-curvature="0"
       style="fill:#000000;fill-rule:nonzero" />
    <path
       d="m 566.79285,465.01392 q 0,-2.35938 0.48438,-3.79688 0.48437,-1.45312 1.4375,-2.23437 0.96875,-0.78125 2.42187,-0.78125 1.07813,0 1.89063,0.4375 0.8125,0.42187 1.32812,1.25 0.53125,0.8125 0.82813,1.98437 0.3125,1.15625 0.3125,3.14063 0,2.35937 -0.48438,3.8125 -0.48437,1.4375 -1.45312,2.23437 -0.95313,0.78125 -2.42188,0.78125 -1.92187,0 -3.03125,-1.39062 -1.3125,-1.67188 -1.3125,-5.4375 z m 1.67188,0 q 0,3.29687 0.76562,4.39062 0.78125,1.07813 1.90625,1.07813 1.14063,0 1.90625,-1.09375 0.76563,-1.09375 0.76563,-4.375 0,-3.29688 -0.76563,-4.375 -0.76562,-1.07813 -1.92187,-1.07813 -1.125,0 -1.79688,0.95313 -0.85937,1.21875 -0.85937,4.5 z"
       id="path1781"
       inkscape:connector-curvature="0"
       style="fill:#000000;fill-rule:nonzero" />
    <path
       d="m 776.58777,463.7483 h -8.82813 v -1.51563 h 8.82813 z m 0,4.0625 h -8.82813 v -1.53125 h 8.82813 z"
       id="path1783"
       inkscape:connector-curvature="0"
       style="fill:#000000;fill-rule:nonzero" />
  </g>
</svg>
