<?xml version="1.0" encoding="UTF-8" standalone="no"?>
<svg
   xmlns:dc="http://purl.org/dc/elements/1.1/"
   xmlns:cc="http://creativecommons.org/ns#"
   xmlns:rdf="http://www.w3.org/1999/02/22-rdf-syntax-ns#"
   xmlns:svg="http://www.w3.org/2000/svg"
   xmlns="http://www.w3.org/2000/svg"
   xmlns:sodipodi="http://sodipodi.sourceforge.net/DTD/sodipodi-0.dtd"
   xmlns:inkscape="http://www.inkscape.org/namespaces/inkscape"
   version="1.1"
   viewBox="0 0 804.90546 165.7874"
   stroke-miterlimit="10"
   id="svg538"
   sodipodi:docname="Kodierung-24-bits.svg"
   width="804.90546"
   height="165.7874"
   style="fill:none;stroke:none;stroke-linecap:square;stroke-miterlimit:10"
   inkscape:version="0.92.4 (f8dce91, 2019-08-02)">
  <title
     id="title920">Kodierung von 24-Bit in 6-Bit</title>
  <metadata
     id="metadata544">
    <rdf:RDF>
      <cc:Work
         rdf:about="">
        <dc:format>image/svg+xml</dc:format>
        <dc:type
           rdf:resource="http://purl.org/dc/dcmitype/StillImage" />
        <dc:title>Kodierung von 24-Bit in 6-Bit</dc:title>
        <dc:creator>
          <cc:Agent>
            <dc:title>Frank W. Rahn</dc:title>
          </cc:Agent>
        </dc:creator>
        <cc:license
           rdf:resource="http://creativecommons.org/licenses/by-nd/4.0/" />
      </cc:Work>
      <cc:License
         rdf:about="http://creativecommons.org/licenses/by-nd/4.0/">
        <cc:permits
           rdf:resource="http://creativecommons.org/ns#Reproduction" />
        <cc:permits
           rdf:resource="http://creativecommons.org/ns#Distribution" />
        <cc:requires
           rdf:resource="http://creativecommons.org/ns#Notice" />
        <cc:requires
           rdf:resource="http://creativecommons.org/ns#Attribution" />
      </cc:License>
    </rdf:RDF>
  </metadata>
  <defs
     id="defs542" />
  <sodipodi:namedview
     pagecolor="#ffffff"
     bordercolor="#666666"
     borderopacity="1"
     objecttolerance="10"
     gridtolerance="10"
     guidetolerance="10"
     inkscape:pageopacity="0"
     inkscape:pageshadow="2"
     inkscape:window-width="1873"
     inkscape:window-height="1172"
     id="namedview540"
     showgrid="false"
     inkscape:zoom="1.3979167"
     inkscape:cx="479.79888"
     inkscape:cy="-104.2002"
     inkscape:window-x="1967"
     inkscape:window-y="0"
     inkscape:window-maximized="1"
     inkscape:current-layer="svg538" />
  <clipPath
     id="g7141564358_0_0.0">
    <path
       d="M 0,0 H 960 V 540 H 0 Z"
       id="path297"
       inkscape:connector-curvature="0"
       style="clip-rule:nonzero" />
  </clipPath>
  <g
     id="g899"
     transform="translate(-13.077428,-11.458005)">
    <path
       d="M 13.577428,11.958005 H 281.54593 v 41.19685 H 13.577428 Z"
       id="path302"
       inkscape:connector-curvature="0"
       style="fill:#efefef;fill-rule:nonzero;shape-rendering:crispEdges" />
    <path
       d="m 549.51447,11.958005 h 267.96844 v 41.19685 H 549.51447 Z"
       id="path304"
       inkscape:connector-curvature="0"
       style="fill:#efefef;fill-rule:nonzero;shape-rendering:crispEdges" />
    <path
       d="M 13.577428,53.154854 H 47.073491 V 94.351708 H 13.577428 Z"
       id="path306"
       inkscape:connector-curvature="0"
       style="fill:#efefef;fill-rule:nonzero;shape-rendering:crispEdges" />
    <path
       d="M 47.07349,53.154854 H 80.569557 V 94.351708 H 47.07349 Z"
       id="path308"
       inkscape:connector-curvature="0"
       style="fill:#efefef;fill-rule:nonzero;shape-rendering:crispEdges" />
    <path
       d="m 80.56956,53.154854 h 33.49606 V 94.351708 H 80.56956 Z"
       id="path310"
       inkscape:connector-curvature="0"
       style="fill:#efefef;fill-rule:nonzero;shape-rendering:crispEdges" />
    <path
       d="m 114.06562,53.154854 h 33.49606 v 41.196854 h -33.49606 z"
       id="path312"
       inkscape:connector-curvature="0"
       style="fill:#efefef;fill-rule:nonzero;shape-rendering:crispEdges" />
    <path
       d="m 147.56168,53.154854 h 33.49606 v 41.196854 h -33.49606 z"
       id="path314"
       inkscape:connector-curvature="0"
       style="fill:#efefef;fill-rule:nonzero;shape-rendering:crispEdges" />
    <path
       d="M 181.05774,53.154854 H 214.5538 V 94.351708 H 181.05774 Z"
       id="path316"
       inkscape:connector-curvature="0"
       style="fill:#efefef;fill-rule:nonzero;shape-rendering:crispEdges" />
    <path
       d="m 214.5538,53.154854 h 33.49606 V 94.351708 H 214.5538 Z"
       id="path318"
       inkscape:connector-curvature="0"
       style="fill:#efefef;fill-rule:nonzero;shape-rendering:crispEdges" />
    <path
       d="m 248.04987,53.154854 h 33.49606 v 41.196854 h -33.49606 z"
       id="path320"
       inkscape:connector-curvature="0"
       style="fill:#efefef;fill-rule:nonzero;shape-rendering:crispEdges" />
    <path
       d="M 549.51447,53.154854 H 583.0105 V 94.351708 H 549.51447 Z"
       id="path322"
       inkscape:connector-curvature="0"
       style="fill:#efefef;fill-rule:nonzero;shape-rendering:crispEdges" />
    <path
       d="m 583.0105,53.154854 h 33.49609 V 94.351708 H 583.0105 Z"
       id="path324"
       inkscape:connector-curvature="0"
       style="fill:#efefef;fill-rule:nonzero;shape-rendering:crispEdges" />
    <path
       d="m 616.5066,53.154854 h 33.49603 V 94.351708 H 616.5066 Z"
       id="path326"
       inkscape:connector-curvature="0"
       style="fill:#efefef;fill-rule:nonzero;shape-rendering:crispEdges" />
    <path
       d="m 650.0026,53.154854 h 33.49603 V 94.351708 H 650.0026 Z"
       id="path328"
       inkscape:connector-curvature="0"
       style="fill:#efefef;fill-rule:nonzero;shape-rendering:crispEdges" />
    <path
       d="m 683.49866,53.154854 h 33.49609 v 41.196854 h -33.49609 z"
       id="path330"
       inkscape:connector-curvature="0"
       style="fill:#efefef;fill-rule:nonzero;shape-rendering:crispEdges" />
    <path
       d="m 716.99475,53.154854 h 33.49603 v 41.196854 h -33.49603 z"
       id="path332"
       inkscape:connector-curvature="0"
       style="fill:#efefef;fill-rule:nonzero;shape-rendering:crispEdges" />
    <path
       d="m 750.4908,53.154854 h 33.49609 V 94.351708 H 750.4908 Z"
       id="path334"
       inkscape:connector-curvature="0"
       style="fill:#efefef;fill-rule:nonzero;shape-rendering:crispEdges" />
    <path
       d="m 783.9869,53.154854 h 33.49603 V 94.351708 H 783.9869 Z"
       id="path336"
       inkscape:connector-curvature="0"
       style="fill:#efefef;fill-rule:nonzero;shape-rendering:crispEdges" />
    <path
       d="m 214.5538,94.35171 h 33.49606 v 41.19685 H 214.5538 Z"
       id="path338"
       inkscape:connector-curvature="0"
       style="fill:#b6d7a8;fill-rule:nonzero;shape-rendering:crispEdges" />
    <path
       d="m 248.04987,94.35171 h 33.49606 v 41.19685 h -33.49606 z"
       id="path340"
       inkscape:connector-curvature="0"
       style="fill:#b6d7a8;fill-rule:nonzero;shape-rendering:crispEdges" />
    <path
       d="m 281.54593,94.35171 h 33.49606 v 41.19685 h -33.49606 z"
       id="path342"
       inkscape:connector-curvature="0"
       style="fill:#b6d7a8;fill-rule:nonzero;shape-rendering:crispEdges" />
    <path
       d="m 315.042,94.35171 h 33.49606 v 41.19685 H 315.042 Z"
       id="path344"
       inkscape:connector-curvature="0"
       style="fill:#b6d7a8;fill-rule:nonzero;shape-rendering:crispEdges" />
    <path
       d="m 348.53806,94.35171 h 33.49606 v 41.19685 h -33.49606 z"
       id="path346"
       inkscape:connector-curvature="0"
       style="fill:#b6d7a8;fill-rule:nonzero;shape-rendering:crispEdges" />
    <path
       d="m 382.03412,94.35171 h 33.49606 v 41.19685 h -33.49606 z"
       id="path348"
       inkscape:connector-curvature="0"
       style="fill:#b6d7a8;fill-rule:nonzero;shape-rendering:crispEdges" />
    <path
       d="m 616.5066,94.35171 h 33.49603 v 41.19685 H 616.5066 Z"
       id="path350"
       inkscape:connector-curvature="0"
       style="fill:#b6d7a8;fill-rule:nonzero;shape-rendering:crispEdges" />
    <path
       d="m 650.0026,94.35171 h 33.49603 v 41.19685 H 650.0026 Z"
       id="path352"
       inkscape:connector-curvature="0"
       style="fill:#b6d7a8;fill-rule:nonzero;shape-rendering:crispEdges" />
    <path
       d="m 683.49866,94.35171 h 33.49609 v 41.19685 h -33.49609 z"
       id="path354"
       inkscape:connector-curvature="0"
       style="fill:#b6d7a8;fill-rule:nonzero;shape-rendering:crispEdges" />
    <path
       d="m 716.99475,94.35171 h 33.49603 v 41.19685 h -33.49603 z"
       id="path356"
       inkscape:connector-curvature="0"
       style="fill:#b6d7a8;fill-rule:nonzero;shape-rendering:crispEdges" />
    <path
       d="m 750.4908,94.35171 h 33.49609 v 41.19685 H 750.4908 Z"
       id="path358"
       inkscape:connector-curvature="0"
       style="fill:#b6d7a8;fill-rule:nonzero;shape-rendering:crispEdges" />
    <path
       d="m 783.9869,94.35171 h 33.49603 v 41.19685 H 783.9869 Z"
       id="path360"
       inkscape:connector-curvature="0"
       style="fill:#b6d7a8;fill-rule:nonzero;shape-rendering:crispEdges" />
    <path
       d="M 214.5538,135.54855 H 415.53018 V 176.7454 H 214.5538 Z"
       id="path362"
       inkscape:connector-curvature="0"
       style="fill:#b6d7a8;fill-rule:nonzero;shape-rendering:crispEdges" />
    <path
       d="M 616.5066,135.54855 H 817.48292 V 176.7454 H 616.5066 Z"
       id="path364"
       inkscape:connector-curvature="0"
       style="fill:#b6d7a8;fill-rule:nonzero;shape-rendering:crispEdges" />
    <path
       d="M 13.577428,11.459317 V 177.24409"
       id="path366"
       inkscape:connector-curvature="0"
       style="fill-rule:nonzero;stroke:#9e9e9e;stroke-width:1;stroke-linecap:butt" />
    <path
       d="M 47.07349,52.656166 V 136.04724"
       id="path368"
       inkscape:connector-curvature="0"
       style="fill-rule:nonzero;stroke:#9e9e9e;stroke-width:1;stroke-linecap:butt" />
    <path
       d="M 80.56956,52.656166 V 136.04724"
       id="path370"
       inkscape:connector-curvature="0"
       style="fill-rule:nonzero;stroke:#9e9e9e;stroke-width:1;stroke-linecap:butt" />
    <path
       d="M 114.06562,52.656166 V 136.04724"
       id="path372"
       inkscape:connector-curvature="0"
       style="fill-rule:nonzero;stroke:#9e9e9e;stroke-width:1;stroke-linecap:butt" />
    <path
       d="M 147.56168,52.656166 V 136.04724"
       id="path374"
       inkscape:connector-curvature="0"
       style="fill-rule:nonzero;stroke:#9e9e9e;stroke-width:1;stroke-linecap:butt" />
    <path
       d="M 181.05774,52.656166 V 136.04724"
       id="path376"
       inkscape:connector-curvature="0"
       style="fill-rule:nonzero;stroke:#9e9e9e;stroke-width:1;stroke-linecap:butt" />
    <path
       d="M 214.5538,52.656166 V 177.2441"
       id="path378"
       inkscape:connector-curvature="0"
       style="fill-rule:nonzero;stroke:#9e9e9e;stroke-width:1;stroke-linecap:butt" />
    <path
       d="M 248.04987,52.656166 V 136.04724"
       id="path380"
       inkscape:connector-curvature="0"
       style="fill-rule:nonzero;stroke:#9e9e9e;stroke-width:1;stroke-linecap:butt" />
    <path
       d="M 281.54593,11.459317 V 136.04724"
       id="path382"
       inkscape:connector-curvature="0"
       style="fill-rule:nonzero;stroke:#9e9e9e;stroke-width:1;stroke-linecap:butt" />
    <path
       d="M 315.042,52.656166 V 136.04724"
       id="path384"
       inkscape:connector-curvature="0"
       style="fill-rule:nonzero;stroke:#9e9e9e;stroke-width:1;stroke-linecap:butt" />
    <path
       d="M 348.53806,52.656166 V 136.04724"
       id="path386"
       inkscape:connector-curvature="0"
       style="fill-rule:nonzero;stroke:#9e9e9e;stroke-width:1;stroke-linecap:butt" />
    <path
       d="M 382.03412,52.656166 V 136.04724"
       id="path388"
       inkscape:connector-curvature="0"
       style="fill-rule:nonzero;stroke:#9e9e9e;stroke-width:1;stroke-linecap:butt" />
    <path
       d="M 415.53018,52.656166 V 177.2441"
       id="path390"
       inkscape:connector-curvature="0"
       style="fill-rule:nonzero;stroke:#9e9e9e;stroke-width:1;stroke-linecap:butt" />
    <path
       d="M 449.02625,52.656166 V 136.04724"
       id="path392"
       inkscape:connector-curvature="0"
       style="fill-rule:nonzero;stroke:#9e9e9e;stroke-width:1;stroke-linecap:butt" />
    <path
       d="M 482.5223,52.656166 V 136.04724"
       id="path394"
       inkscape:connector-curvature="0"
       style="fill-rule:nonzero;stroke:#9e9e9e;stroke-width:1;stroke-linecap:butt" />
    <path
       d="M 516.0184,52.656166 V 136.04724"
       id="path396"
       inkscape:connector-curvature="0"
       style="fill-rule:nonzero;stroke:#9e9e9e;stroke-width:1;stroke-linecap:butt" />
    <path
       d="M 549.51447,11.459317 V 136.04724"
       id="path398"
       inkscape:connector-curvature="0"
       style="fill-rule:nonzero;stroke:#9e9e9e;stroke-width:1;stroke-linecap:butt" />
    <path
       d="M 583.0105,52.656166 V 136.04724"
       id="path400"
       inkscape:connector-curvature="0"
       style="fill-rule:nonzero;stroke:#9e9e9e;stroke-width:1;stroke-linecap:butt" />
    <path
       d="M 616.5066,52.656166 V 177.2441"
       id="path402"
       inkscape:connector-curvature="0"
       style="fill-rule:nonzero;stroke:#9e9e9e;stroke-width:1;stroke-linecap:butt" />
    <path
       d="M 650.0026,52.656166 V 136.04724"
       id="path404"
       inkscape:connector-curvature="0"
       style="fill-rule:nonzero;stroke:#9e9e9e;stroke-width:1;stroke-linecap:butt" />
    <path
       d="M 683.49866,52.656166 V 136.04724"
       id="path406"
       inkscape:connector-curvature="0"
       style="fill-rule:nonzero;stroke:#9e9e9e;stroke-width:1;stroke-linecap:butt" />
    <path
       d="M 716.99475,52.656166 V 136.04724"
       id="path408"
       inkscape:connector-curvature="0"
       style="fill-rule:nonzero;stroke:#9e9e9e;stroke-width:1;stroke-linecap:butt" />
    <path
       d="M 750.4908,52.656166 V 136.04724"
       id="path410"
       inkscape:connector-curvature="0"
       style="fill-rule:nonzero;stroke:#9e9e9e;stroke-width:1;stroke-linecap:butt" />
    <path
       d="M 783.9869,52.656166 V 136.04724"
       id="path412"
       inkscape:connector-curvature="0"
       style="fill-rule:nonzero;stroke:#9e9e9e;stroke-width:1;stroke-linecap:butt" />
    <path
       d="M 817.4829,11.459317 V 177.24409"
       id="path414"
       inkscape:connector-curvature="0"
       style="fill-rule:nonzero;stroke:#9e9e9e;stroke-width:1;stroke-linecap:butt" />
    <path
       d="m 13.07874,11.958005 h 804.9029"
       id="path416"
       inkscape:connector-curvature="0"
       style="fill-rule:nonzero;stroke:#9e9e9e;stroke-width:1;stroke-linecap:butt" />
    <path
       d="m 13.07874,53.154854 h 804.9029"
       id="path418"
       inkscape:connector-curvature="0"
       style="fill-rule:nonzero;stroke:#9e9e9e;stroke-width:1;stroke-linecap:butt" />
    <path
       d="m 13.07874,94.35171 h 804.9029"
       id="path420"
       inkscape:connector-curvature="0"
       style="fill-rule:nonzero;stroke:#9e9e9e;stroke-width:1;stroke-linecap:butt" />
    <path
       d="m 13.07874,135.54855 h 804.9029"
       id="path422"
       inkscape:connector-curvature="0"
       style="fill-rule:nonzero;stroke:#9e9e9e;stroke-width:1;stroke-linecap:butt" />
    <path
       d="m 13.07874,176.7454 h 804.9029"
       id="path424"
       inkscape:connector-curvature="0"
       style="fill-rule:nonzero;stroke:#9e9e9e;stroke-width:1;stroke-linecap:butt" />
    <path
       d="M 122.47619,38.878002 V 25.518629 h 5.01563 q 1.53124,0 2.45311,0.40625 0.92188,0.40625 1.4375,1.25 0.53125,0.84375 0.53125,1.765625 0,0.859375 -0.46875,1.625 -0.45312,0.75 -1.39062,1.203125 1.20312,0.359373 1.85937,1.218748 0.65625,0.859375 0.65625,2.015625 0,0.9375 -0.40625,1.75 -0.39062,0.796875 -0.98437,1.234375 -0.57813,0.4375 -1.45313,0.671875 -0.875,0.21875 -2.15624,0.21875 z m 1.78125,-7.749998 h 2.875 q 1.18749,0 1.68749,-0.140625 0.67188,-0.203125 1.01563,-0.671875 0.34375,-0.46875 0.34375,-1.171875 0,-0.65625 -0.32813,-1.15625 -0.3125,-0.515625 -0.90625,-0.703125 -0.59375,-0.1875 -2.03124,-0.1875 h -2.65625 z m 0,6.171873 h 3.3125 q 0.85937,0 1.20312,-0.0625 0.60937,-0.109375 1.01562,-0.359375 0.42188,-0.265625 0.6875,-0.75 0.26563,-0.484375 0.26563,-1.125 0,-0.75 -0.39063,-1.296875 -0.375,-0.546875 -1.0625,-0.765625 -0.67187,-0.234375 -1.95311,-0.234375 h -3.07813 z m 10.45919,5.296875 -0.1875,-1.53125 q 0.54687,0.140625 0.9375,0.140625 0.54687,0 0.875,-0.1875 0.32812,-0.171875 0.54687,-0.5 0.15625,-0.25 0.5,-1.21875 0.0469,-0.140625 0.14063,-0.40625 l -3.67188,-9.687498 h 1.76563 l 2.01562,5.593748 q 0.39063,1.078125 0.70313,2.25 0.28125,-1.125 0.67187,-2.203125 l 2.07813,-5.640623 h 1.64062 l -3.6875,9.828123 q -0.59375,1.609375 -0.92187,2.203125 -0.4375,0.8125 -1,1.1875 -0.5625,0.375 -1.34375,0.375 -0.48438,0 -1.0625,-0.203125 z m 12.98437,-5.1875 0.23438,1.453125 q -0.6875,0.140625 -1.23438,0.140625 -0.89062,0 -1.39062,-0.28125 -0.48438,-0.28125 -0.6875,-0.734375 -0.20313,-0.46875 -0.20313,-1.9375 v -5.578123 h -1.20312 v -1.265625 h 1.20312 v -2.390625 l 1.625,-0.984375 v 3.375 h 1.65625 v 1.265625 h -1.65625 v 5.671873 q 0,0.6875 0.0781,0.890625 0.0937,0.203125 0.28125,0.328125 0.20312,0.109375 0.57812,0.109375 0.26563,0 0.71875,-0.0625 z m 8.23018,-1.640625 1.6875,0.203125 q -0.40625,1.484375 -1.48437,2.3125 -1.07813,0.8125 -2.76563,0.8125 -2.125,0 -3.375,-1.296875 -1.23437,-1.3125 -1.23437,-3.671875 0,-2.453123 1.25,-3.796873 1.26562,-1.34375 3.26562,-1.34375 1.9375,0 3.15625,1.328125 1.23438,1.3125 1.23438,3.703123 0,0.15625 0,0.4375 h -7.21875 q 0.0937,1.59375 0.90625,2.453125 0.8125,0.84375 2.01562,0.84375 0.90625,0 1.54688,-0.46875 0.64062,-0.484375 1.01562,-1.515625 z m -5.39062,-2.65625 h 5.40625 q -0.10938,-1.218748 -0.625,-1.828123 -0.78125,-0.953125 -2.03125,-0.953125 -1.125,0 -1.90625,0.765625 -0.76563,0.75 -0.84375,2.015623 z m 20.04339,5.765625 h -1.64062 V 28.424879 q -0.59375,0.5625 -1.5625,1.140625 -0.95313,0.5625 -1.71875,0.84375 v -1.59375 q 1.375,-0.640625 2.40625,-1.5625 1.03125,-0.921875 1.45312,-1.78125 h 1.0625 z"
       id="path426"
       inkscape:connector-curvature="0"
       style="fill:#000000;fill-rule:nonzero" />
    <path
       d="M 390.4447,38.878002 V 25.518629 h 5.01562 q 1.53125,0 2.45313,0.40625 0.92187,0.40625 1.4375,1.25 0.53125,0.84375 0.53125,1.765625 0,0.859375 -0.46875,1.625 -0.45313,0.75 -1.39063,1.203125 1.20313,0.359373 1.85938,1.218748 0.65625,0.859375 0.65625,2.015625 0,0.9375 -0.40625,1.75 -0.39063,0.796875 -0.98438,1.234375 -0.57812,0.4375 -1.45312,0.671875 -0.875,0.21875 -2.15625,0.21875 z m 1.78125,-7.749998 h 2.875 q 1.1875,0 1.6875,-0.140625 0.67187,-0.203125 1.01562,-0.671875 0.34375,-0.46875 0.34375,-1.171875 0,-0.65625 -0.32812,-1.15625 -0.3125,-0.515625 -0.90625,-0.703125 -0.59375,-0.1875 -2.03125,-0.1875 h -2.65625 z m 0,6.171873 h 3.3125 q 0.85937,0 1.20312,-0.0625 0.60938,-0.109375 1.01563,-0.359375 0.42187,-0.265625 0.6875,-0.75 0.26562,-0.484375 0.26562,-1.125 0,-0.75 -0.39062,-1.296875 -0.375,-0.546875 -1.0625,-0.765625 -0.67188,-0.234375 -1.95313,-0.234375 h -3.07812 z m 10.4592,5.296875 -0.1875,-1.53125 q 0.54687,0.140625 0.9375,0.140625 0.54687,0 0.875,-0.1875 0.32812,-0.171875 0.54687,-0.5 0.15625,-0.25 0.5,-1.21875 0.0469,-0.140625 0.14063,-0.40625 l -3.67188,-9.687498 h 1.76563 l 2.01562,5.593748 q 0.39063,1.078125 0.70313,2.25 0.28125,-1.125 0.67187,-2.203125 l 2.07813,-5.640623 h 1.64062 l -3.6875,9.828123 q -0.59375,1.609375 -0.92187,2.203125 -0.4375,0.8125 -1,1.1875 -0.5625,0.375 -1.34375,0.375 -0.48438,0 -1.0625,-0.203125 z m 12.98437,-5.1875 0.23438,1.453125 q -0.6875,0.140625 -1.23438,0.140625 -0.89062,0 -1.39062,-0.28125 -0.48438,-0.28125 -0.6875,-0.734375 -0.20313,-0.46875 -0.20313,-1.9375 v -5.578123 h -1.20312 v -1.265625 h 1.20312 v -2.390625 l 1.625,-0.984375 v 3.375 h 1.65625 v 1.265625 h -1.65625 v 5.671873 q 0,0.6875 0.0781,0.890625 0.0937,0.203125 0.28125,0.328125 0.20312,0.109375 0.57812,0.109375 0.26563,0 0.71875,-0.0625 z m 8.23017,-1.640625 1.6875,0.203125 q -0.40625,1.484375 -1.48438,2.3125 -1.07812,0.8125 -2.76562,0.8125 -2.125,0 -3.375,-1.296875 -1.23438,-1.3125 -1.23438,-3.671875 0,-2.453123 1.25,-3.796873 1.26563,-1.34375 3.26563,-1.34375 1.9375,0 3.15625,1.328125 1.23437,1.3125 1.23437,3.703123 0,0.15625 0,0.4375 h -7.21875 q 0.0937,1.59375 0.90625,2.453125 0.8125,0.84375 2.01563,0.84375 0.90625,0 1.54687,-0.46875 0.64063,-0.484375 1.01563,-1.515625 z m -5.39063,-2.65625 h 5.40625 q -0.10937,-1.218748 -0.625,-1.828123 -0.78125,-0.953125 -2.03125,-0.953125 -1.125,0 -1.90625,0.765625 -0.76562,0.75 -0.84375,2.015623 z m 22.4809,4.1875 v 1.578125 h -8.82813 q -0.0156,-0.59375 0.1875,-1.140625 0.34375,-0.90625 1.07813,-1.78125 0.75,-0.875 2.15625,-2.015625 2.17187,-1.78125 2.9375,-2.828123 0.76562,-1.046875 0.76562,-1.96875 0,-0.984375 -0.70312,-1.640625 -0.6875,-0.671875 -1.8125,-0.671875 -1.1875,0 -1.90625,0.71875 -0.70313,0.703125 -0.70313,1.953125 l -1.6875,-0.171875 q 0.17188,-1.890625 1.29688,-2.875 1.14062,-0.984375 3.03125,-0.984375 1.92187,0 3.04687,1.0625 1.125,1.0625 1.125,2.640625 0,0.796875 -0.32812,1.578125 -0.32813,0.78125 -1.09375,1.640623 -0.75,0.84375 -2.53125,2.34375 -1.46875,1.234375 -1.89063,1.6875 -0.42187,0.4375 -0.6875,0.875 z"
       id="path428"
       inkscape:connector-curvature="0"
       style="fill:#000000;fill-rule:nonzero" />
    <path
       d="M 658.4132,38.878002 V 25.518629 h 5.01562 q 1.53125,0 2.45313,0.40625 0.92187,0.40625 1.4375,1.25 0.53125,0.84375 0.53125,1.765625 0,0.859375 -0.46875,1.625 -0.45313,0.75 -1.39063,1.203125 1.20313,0.359373 1.85938,1.218748 0.65625,0.859375 0.65625,2.015625 0,0.9375 -0.40625,1.75 -0.39063,0.796875 -0.98438,1.234375 -0.57812,0.4375 -1.45312,0.671875 -0.875,0.21875 -2.15625,0.21875 z m 1.78125,-7.749998 h 2.875 q 1.1875,0 1.6875,-0.140625 0.67187,-0.203125 1.01562,-0.671875 0.34375,-0.46875 0.34375,-1.171875 0,-0.65625 -0.32812,-1.15625 -0.3125,-0.515625 -0.90625,-0.703125 -0.59375,-0.1875 -2.03125,-0.1875 h -2.65625 z m 0,6.171873 h 3.3125 q 0.85937,0 1.20312,-0.0625 0.60938,-0.109375 1.01563,-0.359375 0.42187,-0.265625 0.6875,-0.75 0.26562,-0.484375 0.26562,-1.125 0,-0.75 -0.39062,-1.296875 -0.375,-0.546875 -1.0625,-0.765625 -0.67188,-0.234375 -1.95313,-0.234375 h -3.07812 z m 10.45917,5.296875 -0.1875,-1.53125 q 0.54687,0.140625 0.9375,0.140625 0.54687,0 0.875,-0.1875 0.32812,-0.171875 0.54687,-0.5 0.15625,-0.25 0.5,-1.21875 0.0469,-0.140625 0.14063,-0.40625 l -3.67188,-9.687498 h 1.76563 l 2.01562,5.593748 q 0.39063,1.078125 0.70313,2.25 0.28125,-1.125 0.67187,-2.203125 l 2.07813,-5.640623 h 1.64062 l -3.6875,9.828123 q -0.59375,1.609375 -0.92187,2.203125 -0.4375,0.8125 -1,1.1875 -0.5625,0.375 -1.34375,0.375 -0.48438,0 -1.0625,-0.203125 z m 12.98437,-5.1875 0.23438,1.453125 q -0.6875,0.140625 -1.23438,0.140625 -0.89062,0 -1.39062,-0.28125 -0.48438,-0.28125 -0.6875,-0.734375 -0.20313,-0.46875 -0.20313,-1.9375 v -5.578123 h -1.20312 v -1.265625 h 1.20312 v -2.390625 l 1.625,-0.984375 v 3.375 h 1.65625 v 1.265625 h -1.65625 v 5.671873 q 0,0.6875 0.0781,0.890625 0.0937,0.203125 0.28125,0.328125 0.20312,0.109375 0.57812,0.109375 0.26563,0 0.71875,-0.0625 z m 8.23023,-1.640625 1.6875,0.203125 q -0.40625,1.484375 -1.48438,2.3125 -1.07812,0.8125 -2.76562,0.8125 -2.125,0 -3.375,-1.296875 -1.23438,-1.3125 -1.23438,-3.671875 0,-2.453123 1.25,-3.796873 1.26563,-1.34375 3.26563,-1.34375 1.9375,0 3.15625,1.328125 1.23437,1.3125 1.23437,3.703123 0,0.15625 0,0.4375 h -7.21875 q 0.0937,1.59375 0.90625,2.453125 0.8125,0.84375 2.01563,0.84375 0.90625,0 1.54687,-0.46875 0.64063,-0.484375 1.01563,-1.515625 z m -5.39063,-2.65625 h 5.40625 q -0.10937,-1.218748 -0.625,-1.828123 -0.78125,-0.953125 -2.03125,-0.953125 -1.125,0 -1.90625,0.765625 -0.76562,0.75 -0.84375,2.015623 z m 13.87152,2.234375 1.64063,-0.21875 q 0.28125,1.40625 0.95312,2.015625 0.6875,0.609375 1.65625,0.609375 1.15625,0 1.95313,-0.796875 0.79687,-0.796875 0.79687,-1.984375 0,-1.125 -0.73437,-1.859375 -0.73438,-0.734375 -1.875,-0.734375 -0.46875,0 -1.15625,0.171875 l 0.1875,-1.437498 q 0.15625,0.01563 0.26562,0.01563 1.04688,0 1.875,-0.546875 0.84375,-0.546875 0.84375,-1.671875 0,-0.90625 -0.60937,-1.5 -0.60938,-0.59375 -1.57813,-0.59375 -0.95312,0 -1.59375,0.609375 -0.64062,0.59375 -0.8125,1.796875 l -1.64062,-0.296875 q 0.29687,-1.640625 1.35937,-2.546875 1.0625,-0.90625 2.65625,-0.90625 1.09375,0 2,0.46875 0.92188,0.46875 1.40625,1.28125 0.5,0.8125 0.5,1.71875 0,0.859375 -0.46875,1.578125 -0.46875,0.703125 -1.375,1.125 1.1875,0.28125 1.84375,1.140623 0.65625,0.859375 0.65625,2.15625 0,1.734375 -1.28125,2.953125 -1.26562,1.21875 -3.21875,1.21875 -1.76562,0 -2.92187,-1.046875 -1.15625,-1.046875 -1.32813,-2.71875 z"
       id="path430"
       inkscape:connector-curvature="0"
       style="fill:#000000;fill-rule:nonzero" />
    <path
       d="m 23.468052,68.46548 v -1.578125 h 8.640625 v 1.28125 q -1.28125,1.359375 -2.53125,3.609375 -1.25,2.25 -1.9375,4.625 -0.484375,1.671875 -0.625,3.671875 h -1.6875 q 0.03125,-1.578125 0.625,-3.8125 0.59375,-2.234375 1.6875,-4.296875 1.109375,-2.078125 2.359375,-3.5 z"
       id="path432"
       inkscape:connector-curvature="0"
       style="fill:#000000;fill-rule:nonzero" />
    <path
       d="m 65.354744,69.99673 -1.625004,0.125 q -0.21875,-0.96875 -0.625,-1.40625 -0.65625,-0.703125 -1.640625,-0.703125 -0.78125,0 -1.375,0.4375 -0.765625,0.5625 -1.21875,1.65625 -0.453125,1.078125 -0.46875,3.078125 0.59375,-0.890625 1.453125,-1.328125 0.859375,-0.4375 1.796875,-0.4375 1.640625,0 2.781254,1.203125 1.15625,1.203125 1.15625,3.109375 0,1.265625 -0.546875,2.34375 -0.53125,1.078125 -1.484379,1.65625 -0.9375,0.578125 -2.140625,0.578125 -2.0625,0 -3.359375,-1.5 -1.28125,-1.515625 -1.28125,-4.984375 0,-3.875 1.421875,-5.625 1.25,-1.53125 3.375,-1.53125 1.5625,0 2.562504,0.890625 1.015625,0.875 1.21875,2.4375 z m -6.687504,5.75 q 0,0.84375 0.359375,1.625 0.359375,0.765625 1,1.171875 0.640625,0.40625 1.359375,0.40625 1.03125,0 1.78125,-0.828125 0.75,-0.84375 0.75,-2.28125 0,-1.390625 -0.734375,-2.1875 -0.734375,-0.796875 -1.859375,-0.796875 -1.109375,0 -1.890625,0.796875 -0.765625,0.796875 -0.765625,2.09375 z"
       id="path434"
       inkscape:connector-curvature="0"
       style="fill:#000000;fill-rule:nonzero" />
    <path
       d="m 90.35081,76.57485 1.71875,-0.140625 q 0.1875,1.25 0.875,1.890625 0.703125,0.625 1.6875,0.625 1.1875,0 2,-0.890625 0.828125,-0.890625 0.828125,-2.359375 0,-1.40625 -0.796875,-2.21875 -0.78125,-0.8125 -2.0625,-0.8125 -0.78125,0 -1.421875,0.359375 -0.640625,0.359375 -1,0.9375 L 90.63206,73.76235 91.928935,66.902975 h 6.640625 v 1.5625 h -5.328125 l -0.71875,3.59375 q 1.203125,-0.84375 2.515625,-0.84375 1.75,0 2.953125,1.21875 1.203125,1.203125 1.203125,3.109375 0,1.8125 -1.046875,3.140625 -1.296875,1.625 -3.515625,1.625 -1.8125,0 -2.96875,-1.015625 -1.15625,-1.03125 -1.3125,-2.71875 z"
       id="path436"
       inkscape:connector-curvature="0"
       style="fill:#000000;fill-rule:nonzero" />
    <path
       d="m 129.09686,80.07485 v -3.203125 h -5.79687 v -1.5 l 6.09374,-8.65625 h 1.34375 v 8.65625 h 1.79688 v 1.5 h -1.79688 v 3.203125 z m 0,-4.703125 V 69.3561 l -4.18749,6.015625 z"
       id="path438"
       inkscape:connector-curvature="0"
       style="fill:#000000;fill-rule:nonzero" />
    <path
       d="m 157.34293,76.5436 1.64062,-0.21875 q 0.28125,1.40625 0.95313,2.015625 0.6875,0.609375 1.65625,0.609375 1.15625,0 1.95312,-0.796875 0.79688,-0.796875 0.79688,-1.984375 0,-1.125 -0.73438,-1.859375 -0.73437,-0.734375 -1.875,-0.734375 -0.46875,0 -1.15625,0.171875 l 0.1875,-1.4375 q 0.15625,0.01563 0.26563,0.01563 1.04687,0 1.875,-0.546875 0.84375,-0.546875 0.84375,-1.671875 0,-0.90625 -0.60938,-1.5 -0.60937,-0.59375 -1.57812,-0.59375 -0.95313,0 -1.59375,0.609375 -0.64063,0.59375 -0.8125,1.796875 L 157.5148,70.12173 q 0.29688,-1.640625 1.35938,-2.546875 1.0625,-0.90625 2.65625,-0.90625 1.09375,0 2,0.46875 0.92187,0.46875 1.40625,1.28125 0.5,0.8125 0.5,1.71875 0,0.859375 -0.46875,1.578125 -0.46875,0.703125 -1.375,1.125 1.1875,0.28125 1.84375,1.140625 0.65625,0.859375 0.65625,2.15625 0,1.734375 -1.28125,2.953125 -1.26563,1.21875 -3.21875,1.21875 -1.76563,0 -2.92188,-1.046875 -1.15625,-1.046875 -1.32812,-2.71875 z"
       id="path440"
       inkscape:connector-curvature="0"
       style="fill:#000000;fill-rule:nonzero" />
    <path
       d="m 199.44836,78.49673 v 1.578125 h -8.82813 q -0.0156,-0.59375 0.1875,-1.140625 0.34375,-0.90625 1.07813,-1.78125 0.75,-0.875 2.15625,-2.015625 2.17187,-1.78125 2.9375,-2.828125 0.76562,-1.046875 0.76562,-1.96875 0,-0.984375 -0.70312,-1.640625 -0.6875,-0.671875 -1.8125,-0.671875 -1.1875,0 -1.90625,0.71875 -0.70313,0.703125 -0.70313,1.953125 l -1.6875,-0.171875 q 0.17188,-1.890625 1.29688,-2.875 1.14062,-0.984375 3.03125,-0.984375 1.92187,0 3.04687,1.0625 1.125,1.0625 1.125,2.640625 0,0.796875 -0.32812,1.578125 -0.32813,0.78125 -1.09375,1.640625 -0.75,0.84375 -2.53125,2.34375 -1.46875,1.234375 -1.89063,1.6875 -0.42187,0.4375 -0.6875,0.875 z"
       id="path442"
       inkscape:connector-curvature="0"
       style="fill:#000000;fill-rule:nonzero" />
    <path
       d="M 230.50693,80.07485 H 228.8663 V 69.621725 q -0.59375,0.5625 -1.5625,1.140625 -0.95312,0.5625 -1.71875,0.84375 v -1.59375 q 1.375,-0.640625 2.40625,-1.5625 1.03125,-0.921875 1.45313,-1.78125 h 1.0625 z"
       id="path444"
       inkscape:connector-curvature="0"
       style="fill:#000000;fill-rule:nonzero" />
    <path
       d="m 257.83112,73.4811 q 0,-2.359375 0.48437,-3.796875 0.48438,-1.453125 1.4375,-2.234375 0.96875,-0.78125 2.42188,-0.78125 1.07812,0 1.89062,0.4375 0.8125,0.421875 1.32813,1.25 0.53125,0.8125 0.82812,1.984375 0.3125,1.15625 0.3125,3.140625 0,2.359375 -0.48437,3.8125 -0.48438,1.4375 -1.45313,2.234375 -0.95312,0.78125 -2.42187,0.78125 -1.92188,0 -3.03125,-1.390625 -1.3125,-1.671875 -1.3125,-5.4375 z m 1.67187,0 q 0,3.296875 0.76563,4.390625 0.78125,1.078125 1.90625,1.078125 1.14062,0 1.90625,-1.09375 0.76562,-1.09375 0.76562,-4.375 0,-3.296875 -0.76562,-4.375 -0.76563,-1.078125 -1.92188,-1.078125 -1.125,0 -1.79687,0.953125 -0.85938,1.21875 -0.85938,4.5 z"
       id="path446"
       inkscape:connector-curvature="0"
       style="fill:#000000;fill-rule:nonzero" />
    <path
       d="m 291.43655,68.46548 v -1.578125 h 8.64062 v 1.28125 q -1.28125,1.359375 -2.53125,3.609375 -1.25,2.25 -1.9375,4.625 -0.48437,1.671875 -0.625,3.671875 h -1.6875 q 0.0312,-1.578125 0.625,-3.8125 0.59375,-2.234375 1.6875,-4.296875 1.10938,-2.078125 2.35938,-3.5 z"
       id="path448"
       inkscape:connector-curvature="0"
       style="fill:#000000;fill-rule:nonzero" />
    <path
       d="m 333.32324,69.99673 -1.625,0.125 q -0.21875,-0.96875 -0.625,-1.40625 -0.65625,-0.703125 -1.64063,-0.703125 -0.78125,0 -1.375,0.4375 -0.76562,0.5625 -1.21875,1.65625 -0.45312,1.078125 -0.46875,3.078125 0.59375,-0.890625 1.45313,-1.328125 0.85937,-0.4375 1.79687,-0.4375 1.64063,0 2.78125,1.203125 1.15625,1.203125 1.15625,3.109375 0,1.265625 -0.54687,2.34375 -0.53125,1.078125 -1.48438,1.65625 -0.9375,0.578125 -2.14062,0.578125 -2.0625,0 -3.35938,-1.5 -1.28125,-1.515625 -1.28125,-4.984375 0,-3.875 1.42188,-5.625 1.25,-1.53125 3.375,-1.53125 1.5625,0 2.5625,0.890625 1.01562,0.875 1.21875,2.4375 z m -6.6875,5.75 q 0,0.84375 0.35937,1.625 0.35938,0.765625 1,1.171875 0.64063,0.40625 1.35938,0.40625 1.03125,0 1.78125,-0.828125 0.75,-0.84375 0.75,-2.28125 0,-1.390625 -0.73438,-2.1875 -0.73437,-0.796875 -1.85937,-0.796875 -1.10938,0 -1.89063,0.796875 -0.76562,0.796875 -0.76562,2.09375 z"
       id="path450"
       inkscape:connector-curvature="0"
       style="fill:#000000;fill-rule:nonzero" />
    <path
       d="m 358.3193,76.57485 1.71875,-0.140625 q 0.1875,1.25 0.875,1.890625 0.70312,0.625 1.6875,0.625 1.1875,0 2,-0.890625 0.82812,-0.890625 0.82812,-2.359375 0,-1.40625 -0.79687,-2.21875 -0.78125,-0.8125 -2.0625,-0.8125 -0.78125,0 -1.42188,0.359375 -0.64062,0.359375 -1,0.9375 l -1.54687,-0.203125 1.29687,-6.859375 h 6.64063 v 1.5625 h -5.32813 l -0.71875,3.59375 q 1.20313,-0.84375 2.51563,-0.84375 1.75,0 2.95312,1.21875 1.20313,1.203125 1.20313,3.109375 0,1.8125 -1.04688,3.140625 -1.29687,1.625 -3.51562,1.625 -1.8125,0 -2.96875,-1.015625 -1.15625,-1.03125 -1.3125,-2.71875 z"
       id="path452"
       inkscape:connector-curvature="0"
       style="fill:#000000;fill-rule:nonzero" />
    <path
       d="m 397.06537,80.07485 v -3.203125 h -5.79688 v -1.5 l 6.09375,-8.65625 h 1.34375 v 8.65625 h 1.79688 v 1.5 h -1.79688 v 3.203125 z m 0,-4.703125 V 69.3561 l -4.1875,6.015625 z"
       id="path454"
       inkscape:connector-curvature="0"
       style="fill:#000000;fill-rule:nonzero" />
    <path
       d="m 425.31143,76.5436 1.64062,-0.21875 q 0.28125,1.40625 0.95313,2.015625 0.6875,0.609375 1.65625,0.609375 1.15625,0 1.95312,-0.796875 0.79688,-0.796875 0.79688,-1.984375 0,-1.125 -0.73438,-1.859375 -0.73437,-0.734375 -1.875,-0.734375 -0.46875,0 -1.15625,0.171875 l 0.1875,-1.4375 q 0.15625,0.01563 0.26563,0.01563 1.04687,0 1.875,-0.546875 0.84375,-0.546875 0.84375,-1.671875 0,-0.90625 -0.60938,-1.5 -0.60937,-0.59375 -1.57812,-0.59375 -0.95313,0 -1.59375,0.609375 -0.64063,0.59375 -0.8125,1.796875 L 425.4833,70.12173 q 0.29688,-1.640625 1.35938,-2.546875 1.0625,-0.90625 2.65625,-0.90625 1.09375,0 2,0.46875 0.92187,0.46875 1.40625,1.28125 0.5,0.8125 0.5,1.71875 0,0.859375 -0.46875,1.578125 -0.46875,0.703125 -1.375,1.125 1.1875,0.28125 1.84375,1.140625 0.65625,0.859375 0.65625,2.15625 0,1.734375 -1.28125,2.953125 -1.26563,1.21875 -3.21875,1.21875 -1.76563,0 -2.92188,-1.046875 -1.15625,-1.046875 -1.32812,-2.71875 z"
       id="path456"
       inkscape:connector-curvature="0"
       style="fill:#000000;fill-rule:nonzero" />
    <path
       d="m 467.41687,78.49673 v 1.578125 h -8.82812 q -0.0156,-0.59375 0.1875,-1.140625 0.34375,-0.90625 1.07812,-1.78125 0.75,-0.875 2.15625,-2.015625 2.17188,-1.78125 2.9375,-2.828125 0.76563,-1.046875 0.76563,-1.96875 0,-0.984375 -0.70313,-1.640625 -0.6875,-0.671875 -1.8125,-0.671875 -1.1875,0 -1.90625,0.71875 -0.70312,0.703125 -0.70312,1.953125 l -1.6875,-0.171875 q 0.17187,-1.890625 1.29687,-2.875 1.14063,-0.984375 3.03125,-0.984375 1.92188,0 3.04688,1.0625 1.125,1.0625 1.125,2.640625 0,0.796875 -0.32813,1.578125 -0.32812,0.78125 -1.09375,1.640625 -0.75,0.84375 -2.53125,2.34375 -1.46875,1.234375 -1.89062,1.6875 -0.42188,0.4375 -0.6875,0.875 z"
       id="path458"
       inkscape:connector-curvature="0"
       style="fill:#000000;fill-rule:nonzero" />
    <path
       d="m 498.47543,80.07485 h -1.64062 V 69.621725 q -0.59375,0.5625 -1.5625,1.140625 -0.95313,0.5625 -1.71875,0.84375 v -1.59375 q 1.375,-0.640625 2.40625,-1.5625 1.03125,-0.921875 1.45312,-1.78125 h 1.0625 z"
       id="path460"
       inkscape:connector-curvature="0"
       style="fill:#000000;fill-rule:nonzero" />
    <path
       d="m 525.7996,73.4811 q 0,-2.359375 0.48438,-3.796875 0.48437,-1.453125 1.4375,-2.234375 0.96875,-0.78125 2.42187,-0.78125 1.07813,0 1.89063,0.4375 0.8125,0.421875 1.32812,1.25 0.53125,0.8125 0.82813,1.984375 0.3125,1.15625 0.3125,3.140625 0,2.359375 -0.48438,3.8125 -0.48437,1.4375 -1.45312,2.234375 -0.95313,0.78125 -2.42188,0.78125 -1.92187,0 -3.03125,-1.390625 -1.3125,-1.671875 -1.3125,-5.4375 z m 1.67188,0 q 0,3.296875 0.76562,4.390625 0.78125,1.078125 1.90625,1.078125 1.14063,0 1.90625,-1.09375 0.76563,-1.09375 0.76563,-4.375 0,-3.296875 -0.76563,-4.375 -0.76562,-1.078125 -1.92187,-1.078125 -1.125,0 -1.79688,0.953125 -0.85937,1.21875 -0.85937,4.5 z"
       id="path462"
       inkscape:connector-curvature="0"
       style="fill:#000000;fill-rule:nonzero" />
    <path
       d="m 559.4051,68.46548 v -1.578125 h 8.64062 v 1.28125 q -1.28125,1.359375 -2.53125,3.609375 -1.25,2.25 -1.9375,4.625 -0.48437,1.671875 -0.625,3.671875 h -1.6875 q 0.0312,-1.578125 0.625,-3.8125 0.59375,-2.234375 1.6875,-4.296875 1.10938,-2.078125 2.35938,-3.5 z"
       id="path464"
       inkscape:connector-curvature="0"
       style="fill:#000000;fill-rule:nonzero" />
    <path
       d="m 601.29175,69.99673 -1.625,0.125 q -0.21875,-0.96875 -0.625,-1.40625 -0.65625,-0.703125 -1.64063,-0.703125 -0.78125,0 -1.375,0.4375 -0.76562,0.5625 -1.21875,1.65625 -0.45312,1.078125 -0.46875,3.078125 0.59375,-0.890625 1.45313,-1.328125 0.85937,-0.4375 1.79687,-0.4375 1.64063,0 2.78125,1.203125 1.15625,1.203125 1.15625,3.109375 0,1.265625 -0.54687,2.34375 -0.53125,1.078125 -1.48438,1.65625 -0.9375,0.578125 -2.14062,0.578125 -2.0625,0 -3.35938,-1.5 -1.28125,-1.515625 -1.28125,-4.984375 0,-3.875 1.42188,-5.625 1.25,-1.53125 3.375,-1.53125 1.5625,0 2.5625,0.890625 1.01562,0.875 1.21875,2.4375 z m -6.6875,5.75 q 0,0.84375 0.35937,1.625 0.35938,0.765625 1,1.171875 0.64063,0.40625 1.35938,0.40625 1.03125,0 1.78125,-0.828125 0.75,-0.84375 0.75,-2.28125 0,-1.390625 -0.73438,-2.1875 -0.73437,-0.796875 -1.85937,-0.796875 -1.10938,0 -1.89063,0.796875 -0.76562,0.796875 -0.76562,2.09375 z"
       id="path466"
       inkscape:connector-curvature="0"
       style="fill:#000000;fill-rule:nonzero" />
    <path
       d="m 626.28784,76.57485 1.71875,-0.140625 q 0.1875,1.25 0.875,1.890625 0.70312,0.625 1.6875,0.625 1.1875,0 2,-0.890625 0.82812,-0.890625 0.82812,-2.359375 0,-1.40625 -0.79687,-2.21875 -0.78125,-0.8125 -2.0625,-0.8125 -0.78125,0 -1.42188,0.359375 -0.64062,0.359375 -1,0.9375 l -1.54687,-0.203125 1.29687,-6.859375 h 6.64063 v 1.5625 h -5.32813 l -0.71875,3.59375 q 1.20313,-0.84375 2.51563,-0.84375 1.75,0 2.95312,1.21875 1.20313,1.203125 1.20313,3.109375 0,1.8125 -1.04688,3.140625 -1.29687,1.625 -3.51562,1.625 -1.8125,0 -2.96875,-1.015625 -1.15625,-1.03125 -1.3125,-2.71875 z"
       id="path468"
       inkscape:connector-curvature="0"
       style="fill:#000000;fill-rule:nonzero" />
    <path
       d="m 665.0339,80.07485 v -3.203125 h -5.79687 v -1.5 l 6.09375,-8.65625 h 1.34375 v 8.65625 h 1.79687 v 1.5 h -1.79687 v 3.203125 z m 0,-4.703125 V 69.3561 l -4.1875,6.015625 z"
       id="path470"
       inkscape:connector-curvature="0"
       style="fill:#000000;fill-rule:nonzero" />
    <path
       d="m 693.2799,76.5436 1.64062,-0.21875 q 0.28125,1.40625 0.95313,2.015625 0.6875,0.609375 1.65625,0.609375 1.15625,0 1.95312,-0.796875 0.79688,-0.796875 0.79688,-1.984375 0,-1.125 -0.73438,-1.859375 -0.73437,-0.734375 -1.875,-0.734375 -0.46875,0 -1.15625,0.171875 l 0.1875,-1.4375 q 0.15625,0.01563 0.26563,0.01563 1.04687,0 1.875,-0.546875 0.84375,-0.546875 0.84375,-1.671875 0,-0.90625 -0.60938,-1.5 -0.60937,-0.59375 -1.57812,-0.59375 -0.95313,0 -1.59375,0.609375 -0.64063,0.59375 -0.8125,1.796875 l -1.64063,-0.296875 q 0.29688,-1.640625 1.35938,-2.546875 1.0625,-0.90625 2.65625,-0.90625 1.09375,0 2,0.46875 0.92187,0.46875 1.40625,1.28125 0.5,0.8125 0.5,1.71875 0,0.859375 -0.46875,1.578125 -0.46875,0.703125 -1.375,1.125 1.1875,0.28125 1.84375,1.140625 0.65625,0.859375 0.65625,2.15625 0,1.734375 -1.28125,2.953125 -1.26563,1.21875 -3.21875,1.21875 -1.76563,0 -2.92188,-1.046875 -1.15625,-1.046875 -1.32812,-2.71875 z"
       id="path472"
       inkscape:connector-curvature="0"
       style="fill:#000000;fill-rule:nonzero" />
    <path
       d="m 735.3854,78.49673 v 1.578125 h -8.82813 q -0.0156,-0.59375 0.1875,-1.140625 0.34375,-0.90625 1.07813,-1.78125 0.75,-0.875 2.15625,-2.015625 2.17187,-1.78125 2.9375,-2.828125 0.76562,-1.046875 0.76562,-1.96875 0,-0.984375 -0.70312,-1.640625 -0.6875,-0.671875 -1.8125,-0.671875 -1.1875,0 -1.90625,0.71875 -0.70313,0.703125 -0.70313,1.953125 l -1.6875,-0.171875 q 0.17188,-1.890625 1.29688,-2.875 1.14062,-0.984375 3.03125,-0.984375 1.92187,0 3.04687,1.0625 1.125,1.0625 1.125,2.640625 0,0.796875 -0.32812,1.578125 -0.32813,0.78125 -1.09375,1.640625 -0.75,0.84375 -2.53125,2.34375 -1.46875,1.234375 -1.89063,1.6875 -0.42187,0.4375 -0.6875,0.875 z"
       id="path474"
       inkscape:connector-curvature="0"
       style="fill:#000000;fill-rule:nonzero" />
    <path
       d="m 766.4439,80.07485 h -1.64063 V 69.621725 q -0.59375,0.5625 -1.5625,1.140625 -0.95312,0.5625 -1.71875,0.84375 v -1.59375 q 1.375,-0.640625 2.40625,-1.5625 1.03125,-0.921875 1.45313,-1.78125 h 1.0625 z"
       id="path476"
       inkscape:connector-curvature="0"
       style="fill:#000000;fill-rule:nonzero" />
    <path
       d="m 793.7681,73.4811 q 0,-2.359375 0.48437,-3.796875 0.48438,-1.453125 1.4375,-2.234375 0.96875,-0.78125 2.42188,-0.78125 1.07812,0 1.89062,0.4375 0.8125,0.421875 1.32813,1.25 0.53125,0.8125 0.82812,1.984375 0.3125,1.15625 0.3125,3.140625 0,2.359375 -0.48437,3.8125 -0.48438,1.4375 -1.45313,2.234375 -0.95312,0.78125 -2.42187,0.78125 -1.92188,0 -3.03125,-1.390625 -1.3125,-1.671875 -1.3125,-5.4375 z m 1.67187,0 q 0,3.296875 0.76563,4.390625 0.78125,1.078125 1.90625,1.078125 1.14062,0 1.90625,-1.09375 0.76562,-1.09375 0.76562,-4.375 0,-3.296875 -0.76562,-4.375 -0.76563,-1.078125 -1.92188,-1.078125 -1.125,0 -1.79687,0.953125 -0.85938,1.21875 -0.85938,4.5 z"
       id="path478"
       inkscape:connector-curvature="0"
       style="fill:#000000;fill-rule:nonzero" />
    <path
       d="m 23.358677,117.77171 1.71875,-0.14063 q 0.1875,1.25 0.875,1.89063 0.703125,0.625 1.6875,0.625 1.1875,0 2,-0.89063 0.828125,-0.89062 0.828125,-2.35937 0,-1.40625 -0.796875,-2.21875 -0.78125,-0.8125 -2.0625,-0.8125 -0.78125,0 -1.421875,0.35937 -0.640625,0.35938 -1,0.9375 l -1.546875,-0.20312 1.296875,-6.85938 h 6.640625 v 1.5625 h -5.328125 l -0.71875,3.59375 q 1.203125,-0.84375 2.515625,-0.84375 1.75,0 2.953125,1.21875 1.203125,1.20313 1.203125,3.10938 0,1.8125 -1.046875,3.14062 -1.296875,1.625 -3.515625,1.625 -1.8125,0 -2.96875,-1.01562 -1.15625,-1.03125 -1.3125,-2.71875 z"
       id="path480"
       inkscape:connector-curvature="0"
       style="fill:#000000;fill-rule:nonzero" />
    <path
       d="m 62.10474,121.27171 v -3.20313 h -5.796875 v -1.5 l 6.09375,-8.65625 h 1.34375 v 8.65625 h 1.796879 v 1.5 h -1.796879 v 3.20313 z m 0,-4.70313 v -6.01562 l -4.1875,6.01562 z"
       id="path482"
       inkscape:connector-curvature="0"
       style="fill:#000000;fill-rule:nonzero" />
    <path
       d="m 90.35081,117.74046 1.640625,-0.21875 q 0.28125,1.40625 0.953125,2.01562 0.6875,0.60938 1.65625,0.60938 1.15625,0 1.953125,-0.79688 0.796875,-0.79687 0.796875,-1.98437 0,-1.125 -0.734375,-1.85938 -0.734375,-0.73437 -1.875,-0.73437 -0.46875,0 -1.15625,0.17187 l 0.1875,-1.4375 q 0.15625,0.0156 0.265625,0.0156 1.046875,0 1.875,-0.54688 0.84375,-0.54687 0.84375,-1.67187 0,-0.90625 -0.609375,-1.5 -0.609375,-0.59375 -1.578125,-0.59375 -0.953125,0 -1.59375,0.60937 -0.640625,0.59375 -0.8125,1.79688 l -1.640625,-0.29688 q 0.296875,-1.64062 1.359375,-2.54687 1.0625,-0.90625 2.65625,-0.90625 1.09375,0 2,0.46875 0.921875,0.46875 1.40625,1.28125 0.5,0.8125 0.5,1.71875 0,0.85937 -0.46875,1.57812 -0.46875,0.70313 -1.375,1.125 1.1875,0.28125 1.84375,1.14063 0.65625,0.85937 0.65625,2.15625 0,1.73437 -1.28125,2.95312 -1.265625,1.21875 -3.21875,1.21875 -1.765625,0 -2.921875,-1.04687 -1.15625,-1.04688 -1.328125,-2.71875 z"
       id="path484"
       inkscape:connector-curvature="0"
       style="fill:#000000;fill-rule:nonzero" />
    <path
       d="m 132.45624,119.69358 v 1.57812 h -8.82812 q -0.0156,-0.59375 0.1875,-1.14062 0.34375,-0.90625 1.07813,-1.78125 0.75,-0.875 2.15625,-2.01563 2.17187,-1.78125 2.93749,-2.82812 0.76563,-1.04688 0.76563,-1.96875 0,-0.98438 -0.70313,-1.64063 -0.6875,-0.67187 -1.8125,-0.67187 -1.18749,0 -1.90624,0.71875 -0.70313,0.70312 -0.70313,1.95312 l -1.6875,-0.17187 q 0.17188,-1.89063 1.29688,-2.875 1.14062,-0.98438 3.03124,-0.98438 1.92188,0 3.04688,1.0625 1.125,1.0625 1.125,2.64063 0,0.79687 -0.32813,1.57812 -0.32812,0.78125 -1.09375,1.64063 -0.75,0.84375 -2.53125,2.34375 -1.46874,1.23437 -1.89062,1.6875 -0.42187,0.4375 -0.6875,0.875 z"
       id="path486"
       inkscape:connector-curvature="0"
       style="fill:#000000;fill-rule:nonzero" />
    <path
       d="m 163.5148,121.27171 h -1.64063 v -10.45313 q -0.59375,0.5625 -1.5625,1.14063 -0.95312,0.5625 -1.71875,0.84375 v -1.59375 q 1.375,-0.64063 2.40625,-1.5625 1.03125,-0.92188 1.45313,-1.78125 h 1.0625 z"
       id="path488"
       inkscape:connector-curvature="0"
       style="fill:#000000;fill-rule:nonzero" />
    <path
       d="m 190.83899,114.67796 q 0,-2.35938 0.48437,-3.79688 0.48438,-1.45312 1.4375,-2.23437 0.96875,-0.78125 2.42188,-0.78125 1.07812,0 1.89062,0.4375 0.8125,0.42187 1.32813,1.25 0.53125,0.8125 0.82812,1.98437 0.3125,1.15625 0.3125,3.14063 0,2.35937 -0.48437,3.8125 -0.48438,1.4375 -1.45313,2.23437 -0.95312,0.78125 -2.42187,0.78125 -1.92188,0 -3.03125,-1.39062 -1.3125,-1.67188 -1.3125,-5.4375 z m 1.67187,0 q 0,3.29687 0.76563,4.39062 0.78125,1.07813 1.90625,1.07813 1.14062,0 1.90625,-1.09375 0.76562,-1.09375 0.76562,-4.375 0,-3.29688 -0.76562,-4.375 -0.76563,-1.07813 -1.92188,-1.07813 -1.125,0 -1.79687,0.95313 -0.85938,1.21875 -0.85938,4.5 z"
       id="path490"
       inkscape:connector-curvature="0"
       style="fill:#000000;fill-rule:nonzero" />
    <path
       d="m 224.33505,117.77171 1.71875,-0.14063 q 0.1875,1.25 0.875,1.89063 0.70312,0.625 1.6875,0.625 1.1875,0 2,-0.89063 0.82812,-0.89062 0.82812,-2.35937 0,-1.40625 -0.79687,-2.21875 -0.78125,-0.8125 -2.0625,-0.8125 -0.78125,0 -1.42188,0.35937 -0.64062,0.35938 -1,0.9375 l -1.54687,-0.20312 1.29687,-6.85938 h 6.64063 v 1.5625 h -5.32813 l -0.71875,3.59375 q 1.20313,-0.84375 2.51563,-0.84375 1.75,0 2.95312,1.21875 1.20313,1.20313 1.20313,3.10938 0,1.8125 -1.04688,3.14062 -1.29687,1.625 -3.51562,1.625 -1.8125,0 -2.96875,-1.01562 -1.15625,-1.03125 -1.3125,-2.71875 z"
       id="path492"
       inkscape:connector-curvature="0"
       style="fill:#000000;fill-rule:nonzero" />
    <path
       d="m 263.08112,121.27171 v -3.20313 h -5.79688 v -1.5 l 6.09375,-8.65625 h 1.34375 v 8.65625 h 1.79688 v 1.5 h -1.79688 v 3.20313 z m 0,-4.70313 v -6.01562 l -4.1875,6.01562 z"
       id="path494"
       inkscape:connector-curvature="0"
       style="fill:#000000;fill-rule:nonzero" />
    <path
       d="m 291.32718,117.74046 1.64062,-0.21875 q 0.28125,1.40625 0.95313,2.01562 0.6875,0.60938 1.65625,0.60938 1.15625,0 1.95312,-0.79688 0.79688,-0.79687 0.79688,-1.98437 0,-1.125 -0.73438,-1.85938 -0.73437,-0.73437 -1.875,-0.73437 -0.46875,0 -1.15625,0.17187 l 0.1875,-1.4375 q 0.15625,0.0156 0.26563,0.0156 1.04687,0 1.875,-0.54688 0.84375,-0.54687 0.84375,-1.67187 0,-0.90625 -0.60938,-1.5 -0.60937,-0.59375 -1.57812,-0.59375 -0.95313,0 -1.59375,0.60937 -0.64063,0.59375 -0.8125,1.79688 l -1.64063,-0.29688 q 0.29688,-1.64062 1.35938,-2.54687 1.0625,-0.90625 2.65625,-0.90625 1.09375,0 2,0.46875 0.92187,0.46875 1.40625,1.28125 0.5,0.8125 0.5,1.71875 0,0.85937 -0.46875,1.57812 -0.46875,0.70313 -1.375,1.125 1.1875,0.28125 1.84375,1.14063 0.65625,0.85937 0.65625,2.15625 0,1.73437 -1.28125,2.95312 -1.26563,1.21875 -3.21875,1.21875 -1.76563,0 -2.92188,-1.04687 -1.15625,-1.04688 -1.32812,-2.71875 z"
       id="path496"
       inkscape:connector-curvature="0"
       style="fill:#000000;fill-rule:nonzero" />
    <path
       d="m 333.43262,119.69358 v 1.57812 h -8.82813 q -0.0156,-0.59375 0.1875,-1.14062 0.34375,-0.90625 1.07813,-1.78125 0.75,-0.875 2.15625,-2.01563 2.17187,-1.78125 2.9375,-2.82812 0.76562,-1.04688 0.76562,-1.96875 0,-0.98438 -0.70312,-1.64063 -0.6875,-0.67187 -1.8125,-0.67187 -1.1875,0 -1.90625,0.71875 -0.70313,0.70312 -0.70313,1.95312 l -1.6875,-0.17187 q 0.17188,-1.89063 1.29688,-2.875 1.14062,-0.98438 3.03125,-0.98438 1.92187,0 3.04687,1.0625 1.125,1.0625 1.125,2.64063 0,0.79687 -0.32812,1.57812 -0.32813,0.78125 -1.09375,1.64063 -0.75,0.84375 -2.53125,2.34375 -1.46875,1.23437 -1.89063,1.6875 -0.42187,0.4375 -0.6875,0.875 z"
       id="path498"
       inkscape:connector-curvature="0"
       style="fill:#000000;fill-rule:nonzero" />
    <path
       d="m 364.49118,121.27171 h -1.64063 v -10.45313 q -0.59375,0.5625 -1.5625,1.14063 -0.95312,0.5625 -1.71875,0.84375 v -1.59375 q 1.375,-0.64063 2.40625,-1.5625 1.03125,-0.92188 1.45313,-1.78125 h 1.0625 z"
       id="path500"
       inkscape:connector-curvature="0"
       style="fill:#000000;fill-rule:nonzero" />
    <path
       d="m 391.81537,114.67796 q 0,-2.35938 0.48437,-3.79688 0.48438,-1.45312 1.4375,-2.23437 0.96875,-0.78125 2.42188,-0.78125 1.07812,0 1.89062,0.4375 0.8125,0.42187 1.32813,1.25 0.53125,0.8125 0.82812,1.98437 0.3125,1.15625 0.3125,3.14063 0,2.35937 -0.48437,3.8125 -0.48438,1.4375 -1.45313,2.23437 -0.95312,0.78125 -2.42187,0.78125 -1.92188,0 -3.03125,-1.39062 -1.3125,-1.67188 -1.3125,-5.4375 z m 1.67187,0 q 0,3.29687 0.76563,4.39062 0.78125,1.07813 1.90625,1.07813 1.14062,0 1.90625,-1.09375 0.76562,-1.09375 0.76562,-4.375 0,-3.29688 -0.76562,-4.375 -0.76563,-1.07813 -1.92188,-1.07813 -1.125,0 -1.79687,0.95313 -0.85938,1.21875 -0.85938,4.5 z"
       id="path502"
       inkscape:connector-curvature="0"
       style="fill:#000000;fill-rule:nonzero" />
    <path
       d="m 425.31143,117.77171 1.71875,-0.14063 q 0.1875,1.25 0.875,1.89063 0.70312,0.625 1.6875,0.625 1.1875,0 2,-0.89063 0.82812,-0.89062 0.82812,-2.35937 0,-1.40625 -0.79687,-2.21875 -0.78125,-0.8125 -2.0625,-0.8125 -0.78125,0 -1.42188,0.35937 -0.64062,0.35938 -1,0.9375 l -1.54687,-0.20312 1.29687,-6.85938 h 6.64063 v 1.5625 h -5.32813 l -0.71875,3.59375 q 1.20313,-0.84375 2.51563,-0.84375 1.75,0 2.95312,1.21875 1.20313,1.20313 1.20313,3.10938 0,1.8125 -1.04688,3.14062 -1.29687,1.625 -3.51562,1.625 -1.8125,0 -2.96875,-1.01562 -1.15625,-1.03125 -1.3125,-2.71875 z"
       id="path504"
       inkscape:connector-curvature="0"
       style="fill:#000000;fill-rule:nonzero" />
    <path
       d="m 464.0575,121.27171 v -3.20313 h -5.79688 v -1.5 l 6.09375,-8.65625 h 1.34375 v 8.65625 h 1.79688 v 1.5 h -1.79688 v 3.20313 z m 0,-4.70313 v -6.01562 l -4.1875,6.01562 z"
       id="path506"
       inkscape:connector-curvature="0"
       style="fill:#000000;fill-rule:nonzero" />
    <path
       d="m 492.30356,117.74046 1.64062,-0.21875 q 0.28125,1.40625 0.95313,2.01562 0.6875,0.60938 1.65625,0.60938 1.15625,0 1.95312,-0.79688 0.79688,-0.79687 0.79688,-1.98437 0,-1.125 -0.73438,-1.85938 -0.73437,-0.73437 -1.875,-0.73437 -0.46875,0 -1.15625,0.17187 l 0.1875,-1.4375 q 0.15625,0.0156 0.26563,0.0156 1.04687,0 1.875,-0.54688 0.84375,-0.54687 0.84375,-1.67187 0,-0.90625 -0.60938,-1.5 -0.60937,-0.59375 -1.57812,-0.59375 -0.95313,0 -1.59375,0.60937 -0.64063,0.59375 -0.8125,1.79688 l -1.64063,-0.29688 q 0.29688,-1.64062 1.35938,-2.54687 1.0625,-0.90625 2.65625,-0.90625 1.09375,0 2,0.46875 0.92187,0.46875 1.40625,1.28125 0.5,0.8125 0.5,1.71875 0,0.85937 -0.46875,1.57812 -0.46875,0.70313 -1.375,1.125 1.1875,0.28125 1.84375,1.14063 0.65625,0.85937 0.65625,2.15625 0,1.73437 -1.28125,2.95312 -1.26563,1.21875 -3.21875,1.21875 -1.76563,0 -2.92188,-1.04687 -1.15625,-1.04688 -1.32812,-2.71875 z"
       id="path508"
       inkscape:connector-curvature="0"
       style="fill:#000000;fill-rule:nonzero" />
    <path
       d="m 534.409,119.69358 v 1.57812 h -8.82813 q -0.0156,-0.59375 0.1875,-1.14062 0.34375,-0.90625 1.07813,-1.78125 0.75,-0.875 2.15625,-2.01563 2.17187,-1.78125 2.9375,-2.82812 0.76562,-1.04688 0.76562,-1.96875 0,-0.98438 -0.70312,-1.64063 -0.6875,-0.67187 -1.8125,-0.67187 -1.1875,0 -1.90625,0.71875 -0.70313,0.70312 -0.70313,1.95312 l -1.6875,-0.17187 q 0.17188,-1.89063 1.29688,-2.875 1.14062,-0.98438 3.03125,-0.98438 1.92187,0 3.04687,1.0625 1.125,1.0625 1.125,2.64063 0,0.79687 -0.32812,1.57812 -0.32813,0.78125 -1.09375,1.64063 -0.75,0.84375 -2.53125,2.34375 -1.46875,1.23437 -1.89063,1.6875 -0.42187,0.4375 -0.6875,0.875 z"
       id="path510"
       inkscape:connector-curvature="0"
       style="fill:#000000;fill-rule:nonzero" />
    <path
       d="m 565.4676,121.27171 h -1.64063 v -10.45313 q -0.59375,0.5625 -1.5625,1.14063 -0.95312,0.5625 -1.71875,0.84375 v -1.59375 q 1.375,-0.64063 2.40625,-1.5625 1.03125,-0.92188 1.45313,-1.78125 h 1.0625 z"
       id="path512"
       inkscape:connector-curvature="0"
       style="fill:#000000;fill-rule:nonzero" />
    <path
       d="m 592.79175,114.67796 q 0,-2.35938 0.48437,-3.79688 0.48438,-1.45312 1.4375,-2.23437 0.96875,-0.78125 2.42188,-0.78125 1.07812,0 1.89062,0.4375 0.8125,0.42187 1.32813,1.25 0.53125,0.8125 0.82812,1.98437 0.3125,1.15625 0.3125,3.14063 0,2.35937 -0.48437,3.8125 -0.48438,1.4375 -1.45313,2.23437 -0.95312,0.78125 -2.42187,0.78125 -1.92188,0 -3.03125,-1.39062 -1.3125,-1.67188 -1.3125,-5.4375 z m 1.67187,0 q 0,3.29687 0.76563,4.39062 0.78125,1.07813 1.90625,1.07813 1.14062,0 1.90625,-1.09375 0.76562,-1.09375 0.76562,-4.375 0,-3.29688 -0.76562,-4.375 -0.76563,-1.07813 -1.92188,-1.07813 -1.125,0 -1.79687,0.95313 -0.85938,1.21875 -0.85938,4.5 z"
       id="path514"
       inkscape:connector-curvature="0"
       style="fill:#000000;fill-rule:nonzero" />
    <path
       d="m 626.28784,117.77171 1.71875,-0.14063 q 0.1875,1.25 0.875,1.89063 0.70312,0.625 1.6875,0.625 1.1875,0 2,-0.89063 0.82812,-0.89062 0.82812,-2.35937 0,-1.40625 -0.79687,-2.21875 -0.78125,-0.8125 -2.0625,-0.8125 -0.78125,0 -1.42188,0.35937 -0.64062,0.35938 -1,0.9375 l -1.54687,-0.20312 1.29687,-6.85938 h 6.64063 v 1.5625 h -5.32813 l -0.71875,3.59375 q 1.20313,-0.84375 2.51563,-0.84375 1.75,0 2.95312,1.21875 1.20313,1.20313 1.20313,3.10938 0,1.8125 -1.04688,3.14062 -1.29687,1.625 -3.51562,1.625 -1.8125,0 -2.96875,-1.01562 -1.15625,-1.03125 -1.3125,-2.71875 z"
       id="path516"
       inkscape:connector-curvature="0"
       style="fill:#000000;fill-rule:nonzero" />
    <path
       d="m 665.0339,121.27171 v -3.20313 h -5.79687 v -1.5 l 6.09375,-8.65625 h 1.34375 v 8.65625 h 1.79687 v 1.5 h -1.79687 v 3.20313 z m 0,-4.70313 v -6.01562 l -4.1875,6.01562 z"
       id="path518"
       inkscape:connector-curvature="0"
       style="fill:#000000;fill-rule:nonzero" />
    <path
       d="m 693.2799,117.74046 1.64062,-0.21875 q 0.28125,1.40625 0.95313,2.01562 0.6875,0.60938 1.65625,0.60938 1.15625,0 1.95312,-0.79688 0.79688,-0.79687 0.79688,-1.98437 0,-1.125 -0.73438,-1.85938 -0.73437,-0.73437 -1.875,-0.73437 -0.46875,0 -1.15625,0.17187 l 0.1875,-1.4375 q 0.15625,0.0156 0.26563,0.0156 1.04687,0 1.875,-0.54688 0.84375,-0.54687 0.84375,-1.67187 0,-0.90625 -0.60938,-1.5 -0.60937,-0.59375 -1.57812,-0.59375 -0.95313,0 -1.59375,0.60937 -0.64063,0.59375 -0.8125,1.79688 l -1.64063,-0.29688 q 0.29688,-1.64062 1.35938,-2.54687 1.0625,-0.90625 2.65625,-0.90625 1.09375,0 2,0.46875 0.92187,0.46875 1.40625,1.28125 0.5,0.8125 0.5,1.71875 0,0.85937 -0.46875,1.57812 -0.46875,0.70313 -1.375,1.125 1.1875,0.28125 1.84375,1.14063 0.65625,0.85937 0.65625,2.15625 0,1.73437 -1.28125,2.95312 -1.26563,1.21875 -3.21875,1.21875 -1.76563,0 -2.92188,-1.04687 -1.15625,-1.04688 -1.32812,-2.71875 z"
       id="path520"
       inkscape:connector-curvature="0"
       style="fill:#000000;fill-rule:nonzero" />
    <path
       d="m 735.3854,119.69358 v 1.57812 h -8.82813 q -0.0156,-0.59375 0.1875,-1.14062 0.34375,-0.90625 1.07813,-1.78125 0.75,-0.875 2.15625,-2.01563 2.17187,-1.78125 2.9375,-2.82812 0.76562,-1.04688 0.76562,-1.96875 0,-0.98438 -0.70312,-1.64063 -0.6875,-0.67187 -1.8125,-0.67187 -1.1875,0 -1.90625,0.71875 -0.70313,0.70312 -0.70313,1.95312 l -1.6875,-0.17187 q 0.17188,-1.89063 1.29688,-2.875 1.14062,-0.98438 3.03125,-0.98438 1.92187,0 3.04687,1.0625 1.125,1.0625 1.125,2.64063 0,0.79687 -0.32812,1.57812 -0.32813,0.78125 -1.09375,1.64063 -0.75,0.84375 -2.53125,2.34375 -1.46875,1.23437 -1.89063,1.6875 -0.42187,0.4375 -0.6875,0.875 z"
       id="path522"
       inkscape:connector-curvature="0"
       style="fill:#000000;fill-rule:nonzero" />
    <path
       d="m 766.4439,121.27171 h -1.64063 v -10.45313 q -0.59375,0.5625 -1.5625,1.14063 -0.95312,0.5625 -1.71875,0.84375 v -1.59375 q 1.375,-0.64063 2.40625,-1.5625 1.03125,-0.92188 1.45313,-1.78125 h 1.0625 z"
       id="path524"
       inkscape:connector-curvature="0"
       style="fill:#000000;fill-rule:nonzero" />
    <path
       d="m 793.7681,114.67796 q 0,-2.35938 0.48437,-3.79688 0.48438,-1.45312 1.4375,-2.23437 0.96875,-0.78125 2.42188,-0.78125 1.07812,0 1.89062,0.4375 0.8125,0.42187 1.32813,1.25 0.53125,0.8125 0.82812,1.98437 0.3125,1.15625 0.3125,3.14063 0,2.35937 -0.48437,3.8125 -0.48438,1.4375 -1.45313,2.23437 -0.95312,0.78125 -2.42187,0.78125 -1.92188,0 -3.03125,-1.39062 -1.3125,-1.67188 -1.3125,-5.4375 z m 1.67187,0 q 0,3.29687 0.76563,4.39062 0.78125,1.07813 1.90625,1.07813 1.14062,0 1.90625,-1.09375 0.76562,-1.09375 0.76562,-4.375 0,-3.29688 -0.76562,-4.375 -0.76563,-1.07813 -1.92188,-1.07813 -1.125,0 -1.79687,0.95313 -0.85938,1.21875 -0.85938,4.5 z"
       id="path526"
       inkscape:connector-curvature="0"
       style="fill:#000000;fill-rule:nonzero" />
    <path
       d="m 73.47521,162.46855 v -1.64063 l 6.84375,-8.54687 q 0.71875,-0.92188 1.375,-1.59375 h -7.453125 v -1.57813 h 9.578125 v 1.57813 l -7.5,9.26562 -0.8125,0.9375 h 8.53125 v 1.57813 z m 18.880356,-3.10938 1.6875,0.20313 q -0.40625,1.48437 -1.484375,2.3125 -1.078125,0.8125 -2.765625,0.8125 -2.125,0 -3.375,-1.29688 -1.234375,-1.3125 -1.234375,-3.67187 0,-2.45313 1.25,-3.79688 1.265625,-1.34375 3.265625,-1.34375 1.9375,0 3.15625,1.32813 1.234375,1.3125 1.234375,3.70312 0,0.15625 0,0.4375 h -7.21875 q 0.09375,1.59375 0.90625,2.45313 0.8125,0.84375 2.015625,0.84375 0.90625,0 1.546875,-0.46875 0.640625,-0.48438 1.015625,-1.51563 z m -5.390625,-2.65625 h 5.40625 q -0.109375,-1.21875 -0.625,-1.82812 -0.78125,-0.95313 -2.03125,-0.95313 -1.125,0 -1.90625,0.76563 -0.765625,0.75 -0.84375,2.01562 z m 9.141342,-5.70312 v -1.89063 h 1.640625 v 1.89063 z m 0,11.46875 v -9.67188 h 1.640625 v 9.67188 z m 10.457317,-3.54688 1.60938,0.21875 q -0.26563,1.65625 -1.35938,2.60938 -1.07812,0.9375 -2.67187,0.9375 -1.98438,0 -3.1875,-1.29688 -1.203126,-1.29687 -1.203126,-3.71875 0,-1.57812 0.515626,-2.75 0.51562,-1.17187 1.57812,-1.75 1.0625,-0.59375 2.3125,-0.59375 1.57813,0 2.57813,0.79688 1,0.79687 1.28125,2.26562 l -1.59375,0.23438 q -0.23438,-0.96875 -0.8125,-1.45313 -0.57813,-0.5 -1.39063,-0.5 -1.23437,0 -2.01562,0.89063 -0.78125,0.89062 -0.78125,2.8125 0,1.95312 0.75,2.84375 0.75,0.875 1.95312,0.875 0.96875,0 1.60938,-0.59375 0.65625,-0.59375 0.82812,-1.82813 z m 3.01563,3.54688 v -13.35938 h 1.64062 v 4.79688 q 1.14063,-1.32813 2.89063,-1.32813 1.07812,0 1.85937,0.42188 0.79688,0.42187 1.14063,1.17187 0.34375,0.75 0.34375,2.17188 v 6.125 h -1.64063 v -6.125 q 0,-1.23438 -0.53125,-1.79688 -0.53125,-0.5625 -1.51562,-0.5625 -0.71875,0 -1.35938,0.39063 -0.64062,0.375 -0.92187,1.01562 -0.26563,0.64063 -0.26563,1.78125 v 5.29688 z m 17.00072,-3.10938 1.68749,0.20313 q -0.40624,1.48437 -1.48437,2.3125 -1.07812,0.8125 -2.76562,0.8125 -2.125,0 -3.375,-1.29688 -1.23438,-1.3125 -1.23438,-3.67187 0,-2.45313 1.25,-3.79688 1.26563,-1.34375 3.26563,-1.34375 1.9375,0 3.15625,1.32813 1.23436,1.3125 1.23436,3.70312 0,0.15625 0,0.4375 h -7.21874 q 0.0937,1.59375 0.90625,2.45313 0.8125,0.84375 2.01563,0.84375 0.90625,0 1.54687,-0.46875 0.64063,-0.48438 1.01563,-1.51563 z m -5.39063,-2.65625 h 5.40625 q -0.10937,-1.21875 -0.625,-1.82812 -0.78125,-0.95313 -2.03125,-0.95313 -1.125,0 -1.90625,0.76563 -0.76562,0.75 -0.84375,2.01562 z m 9.14134,5.76563 v -9.67188 h 1.46875 v 1.375 q 1.0625,-1.59375 3.07812,-1.59375 0.875,0 1.60938,0.3125 0.73437,0.3125 1.09375,0.82813 0.375,0.5 0.51562,1.20312 0.0937,0.45313 0.0937,1.59375 v 5.95313 h -1.64062 v -5.89063 q 0,-1 -0.20313,-1.48437 -0.1875,-0.5 -0.67187,-0.79688 -0.48438,-0.29687 -1.14063,-0.29687 -1.04687,0 -1.8125,0.67187 -0.75,0.65625 -0.75,2.51563 v 5.28125 z m 21.27777,0 h -1.64063 v -10.45313 q -0.59375,0.5625 -1.5625,1.14063 -0.95312,0.5625 -1.71875,0.84375 v -1.59375 q 1.375,-0.64063 2.40625,-1.5625 1.03125,-0.92188 1.45313,-1.78125 h 1.0625 z"
       id="path528"
       inkscape:connector-curvature="0"
       style="fill:#000000;fill-rule:nonzero" />
    <path
       d="m 274.4516,162.46855 v -1.64063 l 6.84375,-8.54687 q 0.71875,-0.92188 1.375,-1.59375 h -7.45313 v -1.57813 h 9.57813 v 1.57813 l -7.5,9.26562 -0.8125,0.9375 h 8.53125 v 1.57813 z m 18.88034,-3.10938 1.6875,0.20313 q -0.40625,1.48437 -1.48438,2.3125 -1.07812,0.8125 -2.76562,0.8125 -2.125,0 -3.375,-1.29688 -1.23438,-1.3125 -1.23438,-3.67187 0,-2.45313 1.25,-3.79688 1.26563,-1.34375 3.26563,-1.34375 1.9375,0 3.15625,1.32813 1.23437,1.3125 1.23437,3.70312 0,0.15625 0,0.4375 h -7.21875 q 0.0937,1.59375 0.90625,2.45313 0.8125,0.84375 2.01563,0.84375 0.90625,0 1.54687,-0.46875 0.64063,-0.48438 1.01563,-1.51563 z m -5.39063,-2.65625 h 5.40625 q -0.10937,-1.21875 -0.625,-1.82812 -0.78125,-0.95313 -2.03125,-0.95313 -1.125,0 -1.90625,0.76563 -0.76562,0.75 -0.84375,2.01562 z m 9.14136,-5.70312 v -1.89063 h 1.64063 v 1.89063 z m 0,11.46875 v -9.67188 h 1.64063 v 9.67188 z m 10.45731,-3.54688 1.60937,0.21875 q -0.26562,1.65625 -1.35937,2.60938 -1.07813,0.9375 -2.67188,0.9375 -1.98437,0 -3.1875,-1.29688 -1.20312,-1.29687 -1.20312,-3.71875 0,-1.57812 0.51562,-2.75 0.51563,-1.17187 1.57813,-1.75 1.0625,-0.59375 2.3125,-0.59375 1.57812,0 2.57812,0.79688 1,0.79687 1.28125,2.26562 l -1.59375,0.23438 q -0.23437,-0.96875 -0.8125,-1.45313 -0.57812,-0.5 -1.39062,-0.5 -1.23438,0 -2.01563,0.89063 -0.78125,0.89062 -0.78125,2.8125 0,1.95312 0.75,2.84375 0.75,0.875 1.95313,0.875 0.96875,0 1.60937,-0.59375 0.65625,-0.59375 0.82813,-1.82813 z m 3.01562,3.54688 v -13.35938 h 1.64063 v 4.79688 q 1.14062,-1.32813 2.89062,-1.32813 1.07813,0 1.85938,0.42188 0.79687,0.42187 1.14062,1.17187 0.34375,0.75 0.34375,2.17188 v 6.125 h -1.64062 v -6.125 q 0,-1.23438 -0.53125,-1.79688 -0.53125,-0.5625 -1.51563,-0.5625 -0.71875,0 -1.35937,0.39063 -0.64063,0.375 -0.92188,1.01562 -0.26562,0.64063 -0.26562,1.78125 v 5.29688 z m 17.00073,-3.10938 1.6875,0.20313 q -0.40625,1.48437 -1.48437,2.3125 -1.07813,0.8125 -2.76563,0.8125 -2.125,0 -3.375,-1.29688 -1.23437,-1.3125 -1.23437,-3.67187 0,-2.45313 1.25,-3.79688 1.26562,-1.34375 3.26562,-1.34375 1.9375,0 3.15625,1.32813 1.23438,1.3125 1.23438,3.70312 0,0.15625 0,0.4375 h -7.21875 q 0.0937,1.59375 0.90625,2.45313 0.8125,0.84375 2.01562,0.84375 0.90625,0 1.54688,-0.46875 0.64062,-0.48438 1.01562,-1.51563 z m -5.39062,-2.65625 h 5.40625 q -0.10938,-1.21875 -0.625,-1.82812 -0.78125,-0.95313 -2.03125,-0.95313 -1.125,0 -1.90625,0.76563 -0.76563,0.75 -0.84375,2.01562 z m 9.14133,5.76563 v -9.67188 h 1.46875 v 1.375 q 1.0625,-1.59375 3.07812,-1.59375 0.875,0 1.60938,0.3125 0.73437,0.3125 1.09375,0.82813 0.375,0.5 0.51562,1.20312 0.0937,0.45313 0.0937,1.59375 v 5.95313 h -1.64062 v -5.89063 q 0,-1 -0.20313,-1.48437 -0.1875,-0.5 -0.67187,-0.79688 -0.48438,-0.29687 -1.14063,-0.29687 -1.04687,0 -1.8125,0.67187 -0.75,0.65625 -0.75,2.51563 v 5.28125 z m 23.71527,-1.57813 v 1.57813 h -8.82813 q -0.0156,-0.59375 0.1875,-1.14063 0.34375,-0.90625 1.07813,-1.78125 0.75,-0.875 2.15625,-2.01562 2.17187,-1.78125 2.9375,-2.82813 0.76562,-1.04687 0.76562,-1.96875 0,-0.98437 -0.70312,-1.64062 -0.6875,-0.67188 -1.8125,-0.67188 -1.1875,0 -1.90625,0.71875 -0.70313,0.70313 -0.70313,1.95313 l -1.6875,-0.17188 q 0.17188,-1.89062 1.29688,-2.875 1.14062,-0.98437 3.03125,-0.98437 1.92187,0 3.04687,1.0625 1.125,1.0625 1.125,2.64062 0,0.79688 -0.32812,1.57813 -0.32813,0.78125 -1.09375,1.64062 -0.75,0.84375 -2.53125,2.34375 -1.46875,1.23438 -1.89063,1.6875 -0.42187,0.4375 -0.6875,0.875 z"
       id="path530"
       inkscape:connector-curvature="0"
       style="fill:#000000;fill-rule:nonzero" />
    <path
       d="m 475.42798,162.46855 v -1.64063 l 6.84375,-8.54687 q 0.71875,-0.92188 1.375,-1.59375 h -7.45313 v -1.57813 h 9.57813 v 1.57813 l -7.5,9.26562 -0.8125,0.9375 h 8.53125 v 1.57813 z m 18.88034,-3.10938 1.6875,0.20313 q -0.40625,1.48437 -1.48438,2.3125 -1.07812,0.8125 -2.76562,0.8125 -2.125,0 -3.375,-1.29688 -1.23438,-1.3125 -1.23438,-3.67187 0,-2.45313 1.25,-3.79688 1.26563,-1.34375 3.26563,-1.34375 1.9375,0 3.15625,1.32813 1.23437,1.3125 1.23437,3.70312 0,0.15625 0,0.4375 h -7.21875 q 0.0937,1.59375 0.90625,2.45313 0.8125,0.84375 2.01563,0.84375 0.90625,0 1.54687,-0.46875 0.64063,-0.48438 1.01563,-1.51563 z m -5.39063,-2.65625 h 5.40625 q -0.10937,-1.21875 -0.625,-1.82812 -0.78125,-0.95313 -2.03125,-0.95313 -1.125,0 -1.90625,0.76563 -0.76562,0.75 -0.84375,2.01562 z m 9.14136,-5.70312 v -1.89063 h 1.64063 v 1.89063 z m 0,11.46875 v -9.67188 h 1.64063 v 9.67188 z m 10.45731,-3.54688 1.60937,0.21875 q -0.26562,1.65625 -1.35937,2.60938 -1.07813,0.9375 -2.67188,0.9375 -1.98437,0 -3.1875,-1.29688 -1.20312,-1.29687 -1.20312,-3.71875 0,-1.57812 0.51562,-2.75 0.51563,-1.17187 1.57813,-1.75 1.0625,-0.59375 2.3125,-0.59375 1.57812,0 2.57812,0.79688 1,0.79687 1.28125,2.26562 l -1.59375,0.23438 q -0.23437,-0.96875 -0.8125,-1.45313 -0.57812,-0.5 -1.39062,-0.5 -1.23438,0 -2.01563,0.89063 -0.78125,0.89062 -0.78125,2.8125 0,1.95312 0.75,2.84375 0.75,0.875 1.95313,0.875 0.96875,0 1.60937,-0.59375 0.65625,-0.59375 0.82813,-1.82813 z m 3.01562,3.54688 v -13.35938 h 1.64063 v 4.79688 q 1.14062,-1.32813 2.89062,-1.32813 1.07813,0 1.85938,0.42188 0.79687,0.42187 1.14062,1.17187 0.34375,0.75 0.34375,2.17188 v 6.125 h -1.64062 v -6.125 q 0,-1.23438 -0.53125,-1.79688 -0.53125,-0.5625 -1.51563,-0.5625 -0.71875,0 -1.35937,0.39063 -0.64063,0.375 -0.92188,1.01562 -0.26562,0.64063 -0.26562,1.78125 v 5.29688 z m 17.00073,-3.10938 1.6875,0.20313 q -0.40625,1.48437 -1.48437,2.3125 -1.07813,0.8125 -2.76563,0.8125 -2.125,0 -3.375,-1.29688 -1.23437,-1.3125 -1.23437,-3.67187 0,-2.45313 1.25,-3.79688 1.26562,-1.34375 3.26562,-1.34375 1.9375,0 3.15625,1.32813 1.23438,1.3125 1.23438,3.70312 0,0.15625 0,0.4375 h -7.21875 q 0.0937,1.59375 0.90625,2.45313 0.8125,0.84375 2.01562,0.84375 0.90625,0 1.54688,-0.46875 0.64062,-0.48438 1.01562,-1.51563 z m -5.39062,-2.65625 h 5.40625 q -0.10938,-1.21875 -0.625,-1.82812 -0.78125,-0.95313 -2.03125,-0.95313 -1.125,0 -1.90625,0.76563 -0.76563,0.75 -0.84375,2.01562 z m 9.14136,5.76563 v -9.67188 h 1.46875 v 1.375 q 1.0625,-1.59375 3.07812,-1.59375 0.875,0 1.60938,0.3125 0.73437,0.3125 1.09375,0.82813 0.375,0.5 0.51562,1.20312 0.0937,0.45313 0.0937,1.59375 v 5.95313 h -1.64062 v -5.89063 q 0,-1 -0.20313,-1.48437 -0.1875,-0.5 -0.67187,-0.79688 -0.48438,-0.29687 -1.14063,-0.29687 -1.04687,0 -1.8125,0.67187 -0.75,0.65625 -0.75,2.51563 v 5.28125 z m 15.10589,-3.53125 1.64063,-0.21875 q 0.28125,1.40625 0.95312,2.01562 0.6875,0.60938 1.65625,0.60938 1.15625,0 1.95313,-0.79688 0.79687,-0.79687 0.79687,-1.98437 0,-1.125 -0.73437,-1.85938 -0.73438,-0.73437 -1.875,-0.73437 -0.46875,0 -1.15625,0.17187 l 0.1875,-1.4375 q 0.15625,0.0156 0.26562,0.0156 1.04688,0 1.875,-0.54688 0.84375,-0.54687 0.84375,-1.67187 0,-0.90625 -0.60937,-1.5 -0.60938,-0.59375 -1.57813,-0.59375 -0.95312,0 -1.59375,0.60937 -0.64062,0.59375 -0.8125,1.79688 l -1.64062,-0.29688 q 0.29687,-1.64062 1.35937,-2.54687 1.0625,-0.90625 2.65625,-0.90625 1.09375,0 2,0.46875 0.92188,0.46875 1.40625,1.28125 0.5,0.8125 0.5,1.71875 0,0.85937 -0.46875,1.57812 -0.46875,0.70313 -1.375,1.125 1.1875,0.28125 1.84375,1.14063 0.65625,0.85937 0.65625,2.15625 0,1.73437 -1.28125,2.95312 -1.26562,1.21875 -3.21875,1.21875 -1.76562,0 -2.92187,-1.04687 -1.15625,-1.04688 -1.32813,-2.71875 z"
       id="path532"
       inkscape:connector-curvature="0"
       style="fill:#000000;fill-rule:nonzero" />
    <path
       d="m 676.40436,162.46855 v -1.64063 l 6.84375,-8.54687 q 0.71875,-0.92188 1.375,-1.59375 h -7.45313 v -1.57813 h 9.57813 v 1.57813 l -7.5,9.26562 -0.8125,0.9375 h 8.53125 v 1.57813 z m 18.88037,-3.10938 1.6875,0.20313 q -0.40625,1.48437 -1.48437,2.3125 -1.07813,0.8125 -2.76563,0.8125 -2.125,0 -3.375,-1.29688 -1.23437,-1.3125 -1.23437,-3.67187 0,-2.45313 1.25,-3.79688 1.26562,-1.34375 3.26562,-1.34375 1.9375,0 3.15625,1.32813 1.23438,1.3125 1.23438,3.70312 0,0.15625 0,0.4375 h -7.21875 q 0.0937,1.59375 0.90625,2.45313 0.8125,0.84375 2.01562,0.84375 0.90625,0 1.54688,-0.46875 0.64062,-0.48438 1.01562,-1.51563 z m -5.39062,-2.65625 h 5.40625 q -0.10938,-1.21875 -0.625,-1.82812 -0.78125,-0.95313 -2.03125,-0.95313 -1.125,0 -1.90625,0.76563 -0.76563,0.75 -0.84375,2.01562 z m 9.14129,-5.70312 v -1.89063 h 1.64063 v 1.89063 z m 0,11.46875 v -9.67188 h 1.64063 v 9.67188 z m 10.45734,-3.54688 1.60937,0.21875 q -0.26562,1.65625 -1.35937,2.60938 -1.07813,0.9375 -2.67188,0.9375 -1.98437,0 -3.1875,-1.29688 -1.20312,-1.29687 -1.20312,-3.71875 0,-1.57812 0.51562,-2.75 0.51563,-1.17187 1.57813,-1.75 1.0625,-0.59375 2.3125,-0.59375 1.57812,0 2.57812,0.79688 1,0.79687 1.28125,2.26562 l -1.59375,0.23438 q -0.23437,-0.96875 -0.8125,-1.45313 -0.57812,-0.5 -1.39062,-0.5 -1.23438,0 -2.01563,0.89063 -0.78125,0.89062 -0.78125,2.8125 0,1.95312 0.75,2.84375 0.75,0.875 1.95313,0.875 0.96875,0 1.60937,-0.59375 0.65625,-0.59375 0.82813,-1.82813 z m 3.01562,3.54688 v -13.35938 h 1.64063 v 4.79688 q 1.14062,-1.32813 2.89062,-1.32813 1.07813,0 1.85938,0.42188 0.79687,0.42187 1.14062,1.17187 0.34375,0.75 0.34375,2.17188 v 6.125 h -1.64062 v -6.125 q 0,-1.23438 -0.53125,-1.79688 -0.53125,-0.5625 -1.51563,-0.5625 -0.71875,0 -1.35937,0.39063 -0.64063,0.375 -0.92188,1.01562 -0.26562,0.64063 -0.26562,1.78125 v 5.29688 z m 17.00073,-3.10938 1.6875,0.20313 q -0.40625,1.48437 -1.48437,2.3125 -1.07813,0.8125 -2.76563,0.8125 -2.125,0 -3.375,-1.29688 -1.23437,-1.3125 -1.23437,-3.67187 0,-2.45313 1.25,-3.79688 1.26562,-1.34375 3.26562,-1.34375 1.9375,0 3.15625,1.32813 1.23438,1.3125 1.23438,3.70312 0,0.15625 0,0.4375 h -7.21875 q 0.0937,1.59375 0.90625,2.45313 0.8125,0.84375 2.01562,0.84375 0.90625,0 1.54688,-0.46875 0.64062,-0.48438 1.01562,-1.51563 z m -5.39062,-2.65625 h 5.40625 q -0.10938,-1.21875 -0.625,-1.82812 -0.78125,-0.95313 -2.03125,-0.95313 -1.125,0 -1.90625,0.76563 -0.76563,0.75 -0.84375,2.01562 z m 9.14136,5.76563 v -9.67188 h 1.46875 v 1.375 q 1.0625,-1.59375 3.07812,-1.59375 0.875,0 1.60938,0.3125 0.73437,0.3125 1.09375,0.82813 0.375,0.5 0.51562,1.20312 0.0937,0.45313 0.0937,1.59375 v 5.95313 h -1.64062 v -5.89063 q 0,-1 -0.20313,-1.48437 -0.1875,-0.5 -0.67187,-0.79688 -0.48438,-0.29687 -1.14063,-0.29687 -1.04687,0 -1.8125,0.67187 -0.75,0.65625 -0.75,2.51563 v 5.28125 z m 20.35589,0 v -3.20313 h -5.79687 v -1.5 l 6.09375,-8.65625 h 1.34375 v 8.65625 h 1.79687 v 1.5 h -1.79687 v 3.20313 z m 0,-4.70313 v -6.01562 l -4.1875,6.01562 z"
       id="path534"
       inkscape:connector-curvature="0"
       style="fill:#000000;fill-rule:nonzero" />
  </g>
</svg>
